%TF.GenerationSoftware,KiCad,Pcbnew,(6.0.1)*%
%TF.CreationDate,2023-06-21T18:56:58+02:00*%
%TF.ProjectId,output,6f757470-7574-42e6-9b69-6361645f7063,rev?*%
%TF.SameCoordinates,Original*%
%TF.FileFunction,Copper,L1,Top*%
%TF.FilePolarity,Positive*%
%FSLAX46Y46*%
G04 Gerber Fmt 4.6, Leading zero omitted, Abs format (unit mm)*
G04 Created by KiCad (PCBNEW (6.0.1)) date 2023-06-21 18:56:58*
%MOMM*%
%LPD*%
G01*
G04 APERTURE LIST*
G04 Aperture macros list*
%AMRoundRect*
0 Rectangle with rounded corners*
0 $1 Rounding radius*
0 $2 $3 $4 $5 $6 $7 $8 $9 X,Y pos of 4 corners*
0 Add a 4 corners polygon primitive as box body*
4,1,4,$2,$3,$4,$5,$6,$7,$8,$9,$2,$3,0*
0 Add four circle primitives for the rounded corners*
1,1,$1+$1,$2,$3*
1,1,$1+$1,$4,$5*
1,1,$1+$1,$6,$7*
1,1,$1+$1,$8,$9*
0 Add four rect primitives between the rounded corners*
20,1,$1+$1,$2,$3,$4,$5,0*
20,1,$1+$1,$4,$5,$6,$7,0*
20,1,$1+$1,$6,$7,$8,$9,0*
20,1,$1+$1,$8,$9,$2,$3,0*%
%AMHorizOval*
0 Thick line with rounded ends*
0 $1 width*
0 $2 $3 position (X,Y) of the first rounded end (center of the circle)*
0 $4 $5 position (X,Y) of the second rounded end (center of the circle)*
0 Add line between two ends*
20,1,$1,$2,$3,$4,$5,0*
0 Add two circle primitives to create the rounded ends*
1,1,$1,$2,$3*
1,1,$1,$4,$5*%
G04 Aperture macros list end*
%TA.AperFunction,SMDPad,CuDef*%
%ADD10R,3.000000X6.000000*%
%TD*%
%TA.AperFunction,ComponentPad*%
%ADD11R,1.700000X1.700000*%
%TD*%
%TA.AperFunction,ComponentPad*%
%ADD12O,1.700000X1.700000*%
%TD*%
%TA.AperFunction,ComponentPad*%
%ADD13C,4.500001*%
%TD*%
%TA.AperFunction,ComponentPad*%
%ADD14R,4.500001X4.500001*%
%TD*%
%TA.AperFunction,ComponentPad*%
%ADD15C,4.500000*%
%TD*%
%TA.AperFunction,ComponentPad*%
%ADD16C,1.600000*%
%TD*%
%TA.AperFunction,ComponentPad*%
%ADD17R,2.200000X2.200000*%
%TD*%
%TA.AperFunction,ComponentPad*%
%ADD18O,2.200000X2.200000*%
%TD*%
%TA.AperFunction,ComponentPad*%
%ADD19RoundRect,0.250000X-0.600000X-0.600000X0.600000X-0.600000X0.600000X0.600000X-0.600000X0.600000X0*%
%TD*%
%TA.AperFunction,ComponentPad*%
%ADD20C,1.700000*%
%TD*%
%TA.AperFunction,ComponentPad*%
%ADD21C,1.400000*%
%TD*%
%TA.AperFunction,ComponentPad*%
%ADD22O,1.400000X1.400000*%
%TD*%
%TA.AperFunction,ComponentPad*%
%ADD23R,1.600000X1.600000*%
%TD*%
%TA.AperFunction,ComponentPad*%
%ADD24O,1.600000X1.600000*%
%TD*%
%TA.AperFunction,ComponentPad*%
%ADD25HorizOval,1.400000X0.000000X0.000000X0.000000X0.000000X0*%
%TD*%
%TA.AperFunction,ComponentPad*%
%ADD26R,1.200000X1.200000*%
%TD*%
%TA.AperFunction,ComponentPad*%
%ADD27C,1.200000*%
%TD*%
%TA.AperFunction,ViaPad*%
%ADD28C,0.800000*%
%TD*%
%TA.AperFunction,Conductor*%
%ADD29C,0.300000*%
%TD*%
%TA.AperFunction,Conductor*%
%ADD30C,0.500000*%
%TD*%
G04 APERTURE END LIST*
D10*
%TO.P,J7,1,Pin_1*%
%TO.N,/InR*%
X86550000Y-108000000D03*
%TD*%
%TO.P,J10,1,Pin_1*%
%TO.N,GND*%
X53500000Y-101300000D03*
%TD*%
D11*
%TO.P,J2,1,Pin_1*%
%TO.N,GND*%
X52250000Y-94050000D03*
D12*
%TO.P,J2,2,Pin_2*%
%TO.N,/InL*%
X54790000Y-94050000D03*
%TD*%
D13*
%TO.P,J4,R*%
%TO.N,/Phones_R*%
X60250000Y-142600000D03*
%TO.P,J4,RN*%
%TO.N,unconnected-(J4-PadRN)*%
X66150000Y-146500000D03*
D14*
%TO.P,J4,S*%
%TO.N,GND*%
X64490000Y-153740000D03*
D15*
%TO.P,J4,T*%
%TO.N,/Phones_L*%
X53350000Y-149500000D03*
%TO.P,J4,TN*%
%TO.N,unconnected-(J4-PadTN)*%
X57250000Y-155400000D03*
%TD*%
D13*
%TO.P,J3,R*%
%TO.N,/OutL_R*%
X60250000Y-117450000D03*
%TO.P,J3,RN*%
%TO.N,unconnected-(J3-PadRN)*%
X66150000Y-121350000D03*
D14*
%TO.P,J3,S*%
%TO.N,GND*%
X64490000Y-128590000D03*
D15*
%TO.P,J3,T*%
%TO.N,/OutL_L*%
X53350000Y-124350000D03*
%TO.P,J3,TN*%
%TO.N,unconnected-(J3-PadTN)*%
X57250000Y-130250000D03*
%TD*%
D10*
%TO.P,J8,1,Pin_1*%
%TO.N,GND*%
X86550000Y-100200000D03*
%TD*%
D16*
%TO.P,C6,1*%
%TO.N,Net-(C6-Pad1)*%
X72644000Y-65020000D03*
%TO.P,C6,2*%
%TO.N,Net-(C6-Pad2)*%
X72644000Y-60020000D03*
%TD*%
D13*
%TO.P,J5,R*%
%TO.N,/OutR_R*%
X81050000Y-117450000D03*
%TO.P,J5,RN*%
%TO.N,unconnected-(J5-PadRN)*%
X86950000Y-121350000D03*
D14*
%TO.P,J5,S*%
%TO.N,GND*%
X85290000Y-128590000D03*
D15*
%TO.P,J5,T*%
%TO.N,/OutR_L*%
X74150000Y-124350000D03*
%TO.P,J5,TN*%
%TO.N,unconnected-(J5-PadTN)*%
X78050000Y-130250000D03*
%TD*%
D11*
%TO.P,J1,1,Pin_1*%
%TO.N,GND*%
X87650000Y-92900000D03*
D12*
%TO.P,J1,2,Pin_2*%
%TO.N,/InR*%
X85110000Y-92900000D03*
%TD*%
D11*
%TO.P,RV1,1,1*%
%TO.N,GND*%
X87415000Y-54550000D03*
D12*
%TO.P,RV1,2,2*%
%TO.N,Net-(R5-Pad1)*%
X84875000Y-54550000D03*
%TO.P,RV1,3,3*%
%TO.N,Net-(C3-Pad2)*%
X87415000Y-57090000D03*
%TO.P,RV1,4,4*%
%TO.N,GND*%
X84875000Y-57090000D03*
%TO.P,RV1,5,5*%
%TO.N,Net-(R6-Pad1)*%
X87415000Y-59630000D03*
%TO.P,RV1,6,6*%
%TO.N,Net-(C4-Pad2)*%
X84875000Y-59630000D03*
%TD*%
D10*
%TO.P,J9,1,Pin_1*%
%TO.N,/InL*%
X53500000Y-109200000D03*
%TD*%
D11*
%TO.P,RV2,1,1*%
%TO.N,GND*%
X81525000Y-154360000D03*
D12*
%TO.P,RV2,2,2*%
%TO.N,Net-(R10-Pad1)*%
X81525000Y-156900000D03*
%TO.P,RV2,3,3*%
%TO.N,Net-(RV2-Pad3)*%
X84065000Y-154360000D03*
%TO.P,RV2,4,4*%
%TO.N,GND*%
X84065000Y-156900000D03*
%TO.P,RV2,5,5*%
%TO.N,Net-(R12-Pad1)*%
X86605000Y-154360000D03*
%TO.P,RV2,6,6*%
%TO.N,Net-(RV2-Pad6)*%
X86605000Y-156900000D03*
%TD*%
D16*
%TO.P,C1,1*%
%TO.N,Net-(C1-Pad1)*%
X82410000Y-69620000D03*
%TO.P,C1,2*%
%TO.N,Net-(C1-Pad2)*%
X82410000Y-64620000D03*
%TD*%
D17*
%TO.P,D1,1,K*%
%TO.N,+12V*%
X57850000Y-84080000D03*
D18*
%TO.P,D1,2,A*%
%TO.N,/+12PD*%
X57850000Y-73920000D03*
%TD*%
D19*
%TO.P,J6,1,Pin_1*%
%TO.N,/-12PD*%
X54397500Y-66330000D03*
D20*
%TO.P,J6,2,Pin_2*%
X56937500Y-66330000D03*
%TO.P,J6,3,Pin_3*%
%TO.N,GND*%
X54397500Y-63790000D03*
%TO.P,J6,4,Pin_4*%
X56937500Y-63790000D03*
%TO.P,J6,5,Pin_5*%
X54397500Y-61250000D03*
%TO.P,J6,6,Pin_6*%
X56937500Y-61250000D03*
%TO.P,J6,7,Pin_7*%
X54397500Y-58710000D03*
%TO.P,J6,8,Pin_8*%
X56937500Y-58710000D03*
%TO.P,J6,9,Pin_9*%
%TO.N,/+12PD*%
X54397500Y-56170000D03*
%TO.P,J6,10,Pin_10*%
X56937500Y-56170000D03*
%TD*%
D21*
%TO.P,R11,1*%
%TO.N,Net-(C6-Pad2)*%
X57740000Y-105300000D03*
D22*
%TO.P,R11,2*%
%TO.N,/OutL_L*%
X57740000Y-112920000D03*
%TD*%
D21*
%TO.P,R14,1*%
%TO.N,GND*%
X67840000Y-107475000D03*
D22*
%TO.P,R14,2*%
%TO.N,Net-(R12-Pad2)*%
X75460000Y-107475000D03*
%TD*%
D23*
%TO.P,U4,1,GAIN*%
%TO.N,Net-(R16-Pad1)*%
X75250000Y-96400000D03*
D24*
%TO.P,U4,2,-*%
%TO.N,GND*%
X75250000Y-98940000D03*
%TO.P,U4,3,+*%
%TO.N,Net-(R12-Pad2)*%
X75250000Y-101480000D03*
%TO.P,U4,4,GND*%
%TO.N,GND*%
X75250000Y-104020000D03*
%TO.P,U4,5*%
%TO.N,Net-(C12-Pad1)*%
X67630000Y-104020000D03*
%TO.P,U4,6,V+*%
%TO.N,+12V*%
X67630000Y-101480000D03*
%TO.P,U4,7,BYPASS*%
%TO.N,Net-(C10-Pad1)*%
X67630000Y-98940000D03*
%TO.P,U4,8,GAIN*%
%TO.N,Net-(R16-Pad2)*%
X67630000Y-96400000D03*
%TD*%
D16*
%TO.P,C11,1*%
%TO.N,Net-(C11-Pad1)*%
X85852000Y-146772000D03*
%TO.P,C11,2*%
%TO.N,Net-(C11-Pad2)*%
X85852000Y-141772000D03*
%TD*%
D21*
%TO.P,R9,1*%
%TO.N,Net-(C5-Pad2)*%
X81410000Y-110400000D03*
D22*
%TO.P,R9,2*%
%TO.N,/OutR_L*%
X73790000Y-110400000D03*
%TD*%
D21*
%TO.P,R17,1*%
%TO.N,GND*%
X80120000Y-135880000D03*
D22*
%TO.P,R17,2*%
%TO.N,Net-(C11-Pad2)*%
X87740000Y-135880000D03*
%TD*%
D16*
%TO.P,C18,1*%
%TO.N,-12V*%
X79280000Y-90440000D03*
%TO.P,C18,2*%
%TO.N,GND*%
X79280000Y-85440000D03*
%TD*%
D23*
%TO.P,U3,1,GAIN*%
%TO.N,Net-(R15-Pad1)*%
X74686000Y-138948000D03*
D24*
%TO.P,U3,2,-*%
%TO.N,GND*%
X77226000Y-138948000D03*
%TO.P,U3,3,+*%
%TO.N,Net-(R10-Pad2)*%
X79766000Y-138948000D03*
%TO.P,U3,4,GND*%
%TO.N,GND*%
X82306000Y-138948000D03*
%TO.P,U3,5*%
%TO.N,Net-(C11-Pad1)*%
X82306000Y-146568000D03*
%TO.P,U3,6,V+*%
%TO.N,+12V*%
X79766000Y-146568000D03*
%TO.P,U3,7,BYPASS*%
%TO.N,Net-(C9-Pad1)*%
X77226000Y-146568000D03*
%TO.P,U3,8,GAIN*%
%TO.N,Net-(R15-Pad2)*%
X74686000Y-146568000D03*
%TD*%
D21*
%TO.P,R19,1*%
%TO.N,GND*%
X73815000Y-113175000D03*
D22*
%TO.P,R19,2*%
%TO.N,/OutR_R*%
X81435000Y-113175000D03*
%TD*%
D21*
%TO.P,R7,1*%
%TO.N,Net-(C5-Pad1)*%
X81910000Y-78250000D03*
D22*
%TO.P,R7,2*%
%TO.N,Net-(C5-Pad2)*%
X74290000Y-78250000D03*
%TD*%
D16*
%TO.P,C5,1*%
%TO.N,Net-(C5-Pad1)*%
X86460000Y-75245000D03*
%TO.P,C5,2*%
%TO.N,Net-(C5-Pad2)*%
X81460000Y-75245000D03*
%TD*%
D17*
%TO.P,D2,1,K*%
%TO.N,/-12PD*%
X52575000Y-73920000D03*
D18*
%TO.P,D2,2,A*%
%TO.N,-12V*%
X52575000Y-84080000D03*
%TD*%
D23*
%TO.P,U2,1*%
%TO.N,Net-(RV2-Pad3)*%
X75475000Y-82175000D03*
D24*
%TO.P,U2,2,-*%
X75475000Y-84715000D03*
%TO.P,U2,3,+*%
%TO.N,Net-(C3-Pad2)*%
X75475000Y-87255000D03*
%TO.P,U2,4,V-*%
%TO.N,-12V*%
X75475000Y-89795000D03*
%TO.P,U2,5,+*%
%TO.N,Net-(C4-Pad2)*%
X67855000Y-89795000D03*
%TO.P,U2,6,-*%
%TO.N,Net-(RV2-Pad6)*%
X67855000Y-87255000D03*
%TO.P,U2,7*%
X67855000Y-84715000D03*
%TO.P,U2,8,V+*%
%TO.N,+12V*%
X67855000Y-82175000D03*
%TD*%
D21*
%TO.P,R5,1*%
%TO.N,Net-(R5-Pad1)*%
X87675000Y-64640000D03*
D22*
%TO.P,R5,2*%
%TO.N,Net-(C5-Pad1)*%
X87675000Y-72260000D03*
%TD*%
D23*
%TO.P,C13,1*%
%TO.N,Net-(C11-Pad1)*%
X52519888Y-136350000D03*
D16*
%TO.P,C13,2*%
%TO.N,/Phones_R*%
X54519888Y-136350000D03*
%TD*%
%TO.P,C17,1*%
%TO.N,-12V*%
X63250000Y-67300000D03*
%TO.P,C17,2*%
%TO.N,GND*%
X63250000Y-62300000D03*
%TD*%
%TO.P,C2,1*%
%TO.N,Net-(C2-Pad1)*%
X62875000Y-74900000D03*
%TO.P,C2,2*%
%TO.N,Net-(C2-Pad2)*%
X62875000Y-69900000D03*
%TD*%
D21*
%TO.P,R20,1*%
%TO.N,GND*%
X68810000Y-113190000D03*
D22*
%TO.P,R20,2*%
%TO.N,/OutL_R*%
X61190000Y-113190000D03*
%TD*%
D21*
%TO.P,R4,1*%
%TO.N,Net-(C2-Pad1)*%
X62750000Y-85835000D03*
D22*
%TO.P,R4,2*%
%TO.N,Net-(C2-Pad2)*%
X62750000Y-78215000D03*
%TD*%
D21*
%TO.P,R6,1*%
%TO.N,Net-(R6-Pad1)*%
X65160000Y-51690000D03*
D22*
%TO.P,R6,2*%
%TO.N,Net-(C6-Pad1)*%
X65160000Y-59310000D03*
%TD*%
D21*
%TO.P,R13,1*%
%TO.N,GND*%
X70525000Y-153860000D03*
D22*
%TO.P,R13,2*%
%TO.N,Net-(R10-Pad2)*%
X70525000Y-146240000D03*
%TD*%
D21*
%TO.P,R15,1*%
%TO.N,Net-(R15-Pad1)*%
X70612000Y-135890000D03*
D22*
%TO.P,R15,2*%
%TO.N,Net-(R15-Pad2)*%
X70612000Y-143510000D03*
%TD*%
D21*
%TO.P,R16,1*%
%TO.N,Net-(R16-Pad1)*%
X75340000Y-93510000D03*
D22*
%TO.P,R16,2*%
%TO.N,Net-(R16-Pad2)*%
X67720000Y-93510000D03*
%TD*%
D16*
%TO.P,C4,1*%
%TO.N,Net-(C2-Pad2)*%
X71060000Y-52295000D03*
%TO.P,C4,2*%
%TO.N,Net-(C4-Pad2)*%
X76060000Y-52295000D03*
%TD*%
D21*
%TO.P,R1,1*%
%TO.N,/InR*%
X88175000Y-89610000D03*
D22*
%TO.P,R1,2*%
%TO.N,Net-(C1-Pad1)*%
X88175000Y-81990000D03*
%TD*%
D21*
%TO.P,R10,1*%
%TO.N,Net-(R10-Pad1)*%
X78010000Y-156950000D03*
D22*
%TO.P,R10,2*%
%TO.N,Net-(R10-Pad2)*%
X70390000Y-156950000D03*
%TD*%
D21*
%TO.P,R3,1*%
%TO.N,Net-(C1-Pad1)*%
X79010000Y-62805000D03*
D22*
%TO.P,R3,2*%
%TO.N,Net-(C1-Pad2)*%
X79010000Y-55185000D03*
%TD*%
D16*
%TO.P,C3,1*%
%TO.N,Net-(C1-Pad2)*%
X71060000Y-55995000D03*
%TO.P,C3,2*%
%TO.N,Net-(C3-Pad2)*%
X76060000Y-55995000D03*
%TD*%
D21*
%TO.P,R18,1*%
%TO.N,GND*%
X68720000Y-110650000D03*
D22*
%TO.P,R18,2*%
%TO.N,Net-(C12-Pad2)*%
X61100000Y-110650000D03*
%TD*%
D21*
%TO.P,R8,1*%
%TO.N,Net-(C6-Pad1)*%
X62350000Y-59310000D03*
D22*
%TO.P,R8,2*%
%TO.N,Net-(C6-Pad2)*%
X62350000Y-51690000D03*
%TD*%
D16*
%TO.P,C12,1*%
%TO.N,Net-(C12-Pad1)*%
X60980000Y-103120000D03*
%TO.P,C12,2*%
%TO.N,Net-(C12-Pad2)*%
X60980000Y-108120000D03*
%TD*%
D21*
%TO.P,R2,1*%
%TO.N,/InL*%
X58530923Y-93669077D03*
D25*
%TO.P,R2,2*%
%TO.N,Net-(C2-Pad1)*%
X63919077Y-88280923D03*
%TD*%
D23*
%TO.P,C14,1*%
%TO.N,Net-(C12-Pad1)*%
X62144888Y-136250000D03*
D16*
%TO.P,C14,2*%
%TO.N,/Phones_L*%
X64144888Y-136250000D03*
%TD*%
%TO.P,C8,1*%
%TO.N,+12V*%
X64300000Y-101400000D03*
%TO.P,C8,2*%
%TO.N,GND*%
X64300000Y-106400000D03*
%TD*%
%TO.P,C16,1*%
%TO.N,+12V*%
X66890000Y-78440000D03*
%TO.P,C16,2*%
%TO.N,GND*%
X71890000Y-78440000D03*
%TD*%
%TO.P,C7,1*%
%TO.N,+12V*%
X81525000Y-150175000D03*
%TO.P,C7,2*%
%TO.N,GND*%
X86525000Y-150175000D03*
%TD*%
D23*
%TO.P,U1,1*%
%TO.N,Net-(C1-Pad2)*%
X75760000Y-59645000D03*
D24*
%TO.P,U1,2,-*%
%TO.N,Net-(C1-Pad1)*%
X75760000Y-62185000D03*
%TO.P,U1,3,+*%
%TO.N,GND*%
X75760000Y-64725000D03*
%TO.P,U1,4,V+*%
%TO.N,+12V*%
X75760000Y-67265000D03*
%TO.P,U1,5,+*%
%TO.N,GND*%
X75760000Y-69805000D03*
%TO.P,U1,6,-*%
%TO.N,Net-(C5-Pad1)*%
X75760000Y-72345000D03*
%TO.P,U1,7*%
%TO.N,Net-(C5-Pad2)*%
X75760000Y-74885000D03*
%TO.P,U1,8*%
%TO.N,Net-(C2-Pad2)*%
X68140000Y-74885000D03*
%TO.P,U1,9,-*%
%TO.N,Net-(C2-Pad1)*%
X68140000Y-72345000D03*
%TO.P,U1,10,+*%
%TO.N,GND*%
X68140000Y-69805000D03*
%TO.P,U1,11,V-*%
%TO.N,-12V*%
X68140000Y-67265000D03*
%TO.P,U1,12,+*%
%TO.N,GND*%
X68140000Y-64725000D03*
%TO.P,U1,13,-*%
%TO.N,Net-(C6-Pad1)*%
X68140000Y-62185000D03*
%TO.P,U1,14*%
%TO.N,Net-(C6-Pad2)*%
X68140000Y-59645000D03*
%TD*%
D26*
%TO.P,C19,1*%
%TO.N,+12V*%
X57350000Y-87777401D03*
D27*
%TO.P,C19,2*%
%TO.N,GND*%
X57350000Y-89777401D03*
%TD*%
D26*
%TO.P,C20,1*%
%TO.N,GND*%
X53622600Y-88550000D03*
D27*
%TO.P,C20,2*%
%TO.N,-12V*%
X51622600Y-88550000D03*
%TD*%
D21*
%TO.P,R12,1*%
%TO.N,Net-(R12-Pad1)*%
X79250000Y-107470000D03*
D22*
%TO.P,R12,2*%
%TO.N,Net-(R12-Pad2)*%
X79250000Y-99850000D03*
%TD*%
D16*
%TO.P,C15,1*%
%TO.N,+12V*%
X79035000Y-67220000D03*
%TO.P,C15,2*%
%TO.N,GND*%
X79035000Y-72220000D03*
%TD*%
%TO.P,C10,1*%
%TO.N,Net-(C10-Pad1)*%
X64300000Y-98975000D03*
%TO.P,C10,2*%
%TO.N,GND*%
X64300000Y-93975000D03*
%TD*%
%TO.P,C9,1*%
%TO.N,Net-(C9-Pad1)*%
X78825000Y-150175000D03*
%TO.P,C9,2*%
%TO.N,GND*%
X73825000Y-150175000D03*
%TD*%
D28*
%TO.N,Net-(C1-Pad1)*%
X84550000Y-74700000D03*
%TO.N,Net-(C2-Pad1)*%
X64950000Y-74900000D03*
%TO.N,Net-(C2-Pad2)*%
X67564000Y-56642000D03*
%TO.N,Net-(C3-Pad2)*%
X81190000Y-52080000D03*
X83340000Y-85420000D03*
%TO.N,Net-(C4-Pad2)*%
X70280000Y-85860000D03*
X76670000Y-79570000D03*
X85290000Y-65160000D03*
X86500000Y-62350000D03*
%TO.N,Net-(C6-Pad2)*%
X63246000Y-72644000D03*
X60350000Y-90370000D03*
%TO.N,Net-(C11-Pad1)*%
X68970000Y-149960000D03*
%TO.N,/Phones_L*%
X60260000Y-147880000D03*
%TO.N,-12V*%
X58540000Y-91790000D03*
%TO.N,Net-(R5-Pad1)*%
X82680000Y-58060000D03*
%TO.N,Net-(R12-Pad1)*%
X83312000Y-108712000D03*
%TO.N,Net-(RV2-Pad3)*%
X77430000Y-121890000D03*
X77440000Y-117980000D03*
%TO.N,Net-(RV2-Pad6)*%
X82042000Y-125100000D03*
X79756000Y-122174000D03*
%TD*%
D29*
%TO.N,GND*%
X52250000Y-100050000D02*
X53500000Y-101300000D01*
X52250000Y-94050000D02*
X52250000Y-100050000D01*
X87650000Y-92900000D02*
X87650000Y-99100000D01*
X87650000Y-99100000D02*
X86550000Y-100200000D01*
%TO.N,Net-(C1-Pad1)*%
X79010000Y-62805000D02*
X79010000Y-64130000D01*
X84550000Y-74700000D02*
X82410000Y-72560000D01*
X79010000Y-64130000D02*
X82410000Y-67530000D01*
X82410000Y-67530000D02*
X82410000Y-69620000D01*
X78390000Y-62185000D02*
X79010000Y-62805000D01*
X75760000Y-62185000D02*
X78390000Y-62185000D01*
X82410000Y-72560000D02*
X82410000Y-69620000D01*
%TO.N,Net-(C1-Pad2)*%
X82410000Y-64620000D02*
X82410000Y-63690000D01*
X78365000Y-59645000D02*
X75760000Y-59645000D01*
X82410000Y-63690000D02*
X78365000Y-59645000D01*
%TO.N,Net-(C2-Pad1)*%
X65585000Y-74900000D02*
X68140000Y-72345000D01*
X64950000Y-74900000D02*
X65585000Y-74900000D01*
X62875000Y-74900000D02*
X64950000Y-74900000D01*
X62750000Y-87111846D02*
X63919077Y-88280923D01*
X62750000Y-85835000D02*
X62750000Y-87111846D01*
%TO.N,Net-(C2-Pad2)*%
X70104000Y-72921000D02*
X70104000Y-59182000D01*
X69850000Y-58928000D02*
X67564000Y-56642000D01*
X66695000Y-76330000D02*
X68140000Y-74885000D01*
X68140000Y-74885000D02*
X70104000Y-72921000D01*
X64635000Y-76330000D02*
X66695000Y-76330000D01*
X62750000Y-78215000D02*
X64635000Y-76330000D01*
X70104000Y-59182000D02*
X69850000Y-58928000D01*
%TO.N,Net-(C3-Pad2)*%
X89390000Y-76710000D02*
X83340000Y-82760000D01*
X89380000Y-56290000D02*
X89380000Y-52780000D01*
X89390000Y-62990000D02*
X89390000Y-76710000D01*
X89380000Y-62980000D02*
X89390000Y-62990000D01*
X88580000Y-57090000D02*
X89240000Y-57090000D01*
X89380000Y-57230000D02*
X89380000Y-62980000D01*
X87415000Y-57090000D02*
X88580000Y-57090000D01*
X83340000Y-82760000D02*
X83340000Y-85420000D01*
X88680000Y-52080000D02*
X81190000Y-52080000D01*
X89380000Y-56290000D02*
X89380000Y-57230000D01*
X89240000Y-57090000D02*
X89380000Y-57230000D01*
X89380000Y-52780000D02*
X88680000Y-52080000D01*
%TO.N,Net-(C4-Pad2)*%
X80980000Y-58110000D02*
X80980000Y-53720000D01*
X82500000Y-59630000D02*
X80980000Y-58110000D01*
X85290000Y-63560000D02*
X86500000Y-62350000D01*
X73430000Y-80260000D02*
X75980000Y-80260000D01*
X85290000Y-65160000D02*
X85290000Y-63560000D01*
X71695655Y-80260000D02*
X73430000Y-80260000D01*
X84875000Y-59630000D02*
X82500000Y-59630000D01*
X80980000Y-53720000D02*
X79555000Y-52295000D01*
X70280000Y-81675655D02*
X71695655Y-80260000D01*
X75980000Y-80260000D02*
X76670000Y-79570000D01*
X70280000Y-85860000D02*
X70280000Y-81675655D01*
X79555000Y-52295000D02*
X76060000Y-52295000D01*
%TO.N,Net-(C5-Pad1)*%
X87675000Y-74030000D02*
X86460000Y-75245000D01*
X81910000Y-78250000D02*
X83455000Y-78250000D01*
X87675000Y-72260000D02*
X87675000Y-74030000D01*
X83455000Y-78250000D02*
X86460000Y-75245000D01*
%TO.N,Net-(C5-Pad2)*%
X76720000Y-78250000D02*
X74290000Y-78250000D01*
X81100000Y-74885000D02*
X81460000Y-75245000D01*
X75760000Y-74885000D02*
X81100000Y-74885000D01*
X75760000Y-76780000D02*
X75760000Y-74885000D01*
X81410000Y-110400000D02*
X81410000Y-82940000D01*
X74290000Y-78250000D02*
X75760000Y-76780000D01*
X81410000Y-82940000D02*
X76720000Y-78250000D01*
%TO.N,Net-(C6-Pad1)*%
X62350000Y-59310000D02*
X65160000Y-59310000D01*
%TO.N,Net-(C6-Pad2)*%
X68140000Y-59645000D02*
X65532000Y-62253000D01*
X60350000Y-90370000D02*
X60350000Y-94320000D01*
X60350000Y-94320000D02*
X57740000Y-96930000D01*
X57740000Y-96930000D02*
X57740000Y-105300000D01*
X65532000Y-70358000D02*
X63246000Y-72644000D01*
X62350000Y-51690000D02*
X62350000Y-53855000D01*
X62350000Y-53855000D02*
X68140000Y-59645000D01*
X65532000Y-62253000D02*
X65532000Y-70358000D01*
D30*
%TO.N,+12V*%
X73152000Y-143510000D02*
X68320000Y-138678000D01*
X79766000Y-146568000D02*
X79766000Y-148416000D01*
X79766000Y-148416000D02*
X81525000Y-150175000D01*
X68320000Y-138678000D02*
X68320000Y-125060000D01*
X66890000Y-78440000D02*
X68540000Y-78440000D01*
X57350000Y-87777401D02*
X57350000Y-84580000D01*
X57350000Y-87777401D02*
X59467401Y-87777401D01*
X78990000Y-67265000D02*
X79035000Y-67220000D01*
X59755000Y-82175000D02*
X57850000Y-84080000D01*
X70840000Y-72185000D02*
X75760000Y-67265000D01*
X61830000Y-90140000D02*
X61830000Y-98930000D01*
X67855000Y-82175000D02*
X67855000Y-79405000D01*
X67855000Y-82175000D02*
X59755000Y-82175000D01*
X69959511Y-103809511D02*
X67630000Y-101480000D01*
X61830000Y-98930000D02*
X64300000Y-101400000D01*
X67855000Y-79405000D02*
X66890000Y-78440000D01*
X68320000Y-125060000D02*
X71120000Y-122260000D01*
X69959511Y-107297511D02*
X69959511Y-103809511D01*
X70840000Y-76140000D02*
X70840000Y-72185000D01*
X68540000Y-78440000D02*
X70840000Y-76140000D01*
X64300000Y-101400000D02*
X67550000Y-101400000D01*
X59467401Y-87777401D02*
X61830000Y-90140000D01*
X67550000Y-101400000D02*
X67630000Y-101480000D01*
X57350000Y-84580000D02*
X57850000Y-84080000D01*
X71120000Y-122260000D02*
X71120000Y-108458000D01*
X79766000Y-146568000D02*
X76708000Y-143510000D01*
X75760000Y-67265000D02*
X78990000Y-67265000D01*
X76708000Y-143510000D02*
X73152000Y-143510000D01*
X71120000Y-108458000D02*
X69959511Y-107297511D01*
D29*
%TO.N,Net-(C9-Pad1)*%
X77226000Y-148576000D02*
X78825000Y-150175000D01*
X77226000Y-146568000D02*
X77226000Y-148576000D01*
%TO.N,Net-(C10-Pad1)*%
X67595000Y-98975000D02*
X67630000Y-98940000D01*
X64300000Y-98975000D02*
X67595000Y-98975000D01*
%TO.N,Net-(C11-Pad1)*%
X59610000Y-149960000D02*
X67480000Y-149960000D01*
X67480000Y-149960000D02*
X68970000Y-149960000D01*
X52519888Y-136350000D02*
X52519888Y-142869888D01*
X52519888Y-142869888D02*
X59610000Y-149960000D01*
%TO.N,Net-(C12-Pad1)*%
X60980000Y-105720000D02*
X60980000Y-103120000D01*
X60760000Y-122040000D02*
X63910000Y-118890000D01*
X66730000Y-103120000D02*
X60980000Y-103120000D01*
X60760000Y-134865112D02*
X60760000Y-122040000D01*
X63910000Y-108650000D02*
X60980000Y-105720000D01*
X67630000Y-104020000D02*
X66730000Y-103120000D01*
X62144888Y-136250000D02*
X60760000Y-134865112D01*
X63910000Y-118890000D02*
X63910000Y-108650000D01*
%TO.N,Net-(C12-Pad2)*%
X60980000Y-110530000D02*
X61100000Y-110650000D01*
X60980000Y-108120000D02*
X60980000Y-110530000D01*
D30*
%TO.N,/Phones_R*%
X54519888Y-136350000D02*
X60250000Y-142080112D01*
X60250000Y-142080112D02*
X60250000Y-142600000D01*
%TO.N,/Phones_L*%
X64144888Y-136250000D02*
X64144888Y-143995112D01*
X64144888Y-143995112D02*
X60260000Y-147880000D01*
%TO.N,-12V*%
X60880000Y-68300000D02*
X61880000Y-67300000D01*
X52575000Y-82495000D02*
X60880000Y-74190000D01*
X54862600Y-91790000D02*
X51622600Y-88550000D01*
X61880000Y-67300000D02*
X63250000Y-67300000D01*
X51622600Y-85032400D02*
X52575000Y-84080000D01*
X60880000Y-74190000D02*
X60880000Y-68300000D01*
X51622600Y-88550000D02*
X51622600Y-85032400D01*
X52575000Y-84080000D02*
X52575000Y-82495000D01*
X58540000Y-91790000D02*
X54862600Y-91790000D01*
%TO.N,/+12PD*%
X58240000Y-56170000D02*
X56937500Y-56170000D01*
X54397500Y-56170000D02*
X56937500Y-56170000D01*
X59720000Y-72050000D02*
X59720000Y-57650000D01*
X57850000Y-73920000D02*
X59720000Y-72050000D01*
X59720000Y-57650000D02*
X58240000Y-56170000D01*
%TO.N,/-12PD*%
X52575000Y-73920000D02*
X52575000Y-68152500D01*
X52575000Y-68152500D02*
X54397500Y-66330000D01*
X54397500Y-66330000D02*
X56937500Y-66330000D01*
%TO.N,/InR*%
X85110000Y-90670000D02*
X86170000Y-89610000D01*
X86170000Y-89610000D02*
X88175000Y-89610000D01*
X83090000Y-94920000D02*
X83090000Y-105940000D01*
X83090000Y-105940000D02*
X85150000Y-108000000D01*
X85150000Y-108000000D02*
X86550000Y-108000000D01*
X85110000Y-92900000D02*
X85110000Y-90670000D01*
X85110000Y-92900000D02*
X83090000Y-94920000D01*
%TO.N,/InL*%
X53500000Y-109200000D02*
X55980000Y-106720000D01*
X55980000Y-106720000D02*
X55980000Y-96740000D01*
X54790000Y-94050000D02*
X57040000Y-94050000D01*
X57040000Y-95680000D02*
X55980000Y-96740000D01*
X57040000Y-94050000D02*
X58150000Y-94050000D01*
X58150000Y-94050000D02*
X58530923Y-93669077D01*
X57040000Y-94050000D02*
X57040000Y-95680000D01*
%TO.N,/OutL_L*%
X53350000Y-124350000D02*
X53350000Y-117310000D01*
X53350000Y-117310000D02*
X57740000Y-112920000D01*
%TO.N,/OutL_R*%
X60250000Y-114130000D02*
X61190000Y-113190000D01*
X60250000Y-117450000D02*
X60250000Y-114130000D01*
%TO.N,/OutR_R*%
X81050000Y-117450000D02*
X81050000Y-113560000D01*
X81050000Y-113560000D02*
X81435000Y-113175000D01*
D29*
%TO.N,Net-(R5-Pad1)*%
X83370000Y-54550000D02*
X82680000Y-55240000D01*
X84875000Y-54550000D02*
X83370000Y-54550000D01*
X82680000Y-55240000D02*
X82680000Y-58060000D01*
%TO.N,Net-(R6-Pad1)*%
X87415000Y-59630000D02*
X85495000Y-61550000D01*
X70460000Y-57760000D02*
X65160000Y-52460000D01*
X65160000Y-52460000D02*
X65160000Y-51690000D01*
X77850000Y-57760000D02*
X70460000Y-57760000D01*
X85495000Y-61550000D02*
X81640000Y-61550000D01*
X81640000Y-61550000D02*
X77850000Y-57760000D01*
%TO.N,Net-(R10-Pad1)*%
X78010000Y-156950000D02*
X81475000Y-156950000D01*
X81475000Y-156950000D02*
X81525000Y-156900000D01*
%TO.N,Net-(R10-Pad2)*%
X68550000Y-153140000D02*
X68550000Y-155110000D01*
X70525000Y-146240000D02*
X70525000Y-151165000D01*
X70525000Y-151165000D02*
X68550000Y-153140000D01*
X68550000Y-155110000D02*
X70390000Y-156950000D01*
%TO.N,Net-(R12-Pad1)*%
X81280000Y-132842000D02*
X81280000Y-127740000D01*
X79390000Y-125850000D02*
X79390000Y-124060000D01*
X79390000Y-124060000D02*
X81220000Y-122230000D01*
X88138000Y-152827000D02*
X88138000Y-139700000D01*
X84328000Y-109728000D02*
X83312000Y-108712000D01*
X81280000Y-127740000D02*
X79390000Y-125850000D01*
X84328000Y-119122000D02*
X84328000Y-109728000D01*
X86605000Y-154360000D02*
X88138000Y-152827000D01*
X88138000Y-139700000D02*
X81280000Y-132842000D01*
X81220000Y-122230000D02*
X84328000Y-119122000D01*
%TO.N,Net-(R12-Pad2)*%
X73210000Y-106320000D02*
X73210000Y-103520000D01*
X74365000Y-107475000D02*
X73210000Y-106320000D01*
X75460000Y-107475000D02*
X74365000Y-107475000D01*
X73210000Y-103520000D02*
X75250000Y-101480000D01*
%TO.N,Net-(R15-Pad1)*%
X70612000Y-135890000D02*
X71628000Y-135890000D01*
X71628000Y-135890000D02*
X74686000Y-138948000D01*
%TO.N,Net-(R15-Pad2)*%
X71628000Y-143510000D02*
X70612000Y-143510000D01*
X74686000Y-146568000D02*
X71628000Y-143510000D01*
%TO.N,Net-(R16-Pad1)*%
X75340000Y-96310000D02*
X75250000Y-96400000D01*
X75340000Y-93510000D02*
X75340000Y-96310000D01*
%TO.N,Net-(R16-Pad2)*%
X67630000Y-93600000D02*
X67720000Y-93510000D01*
X67630000Y-96400000D02*
X67630000Y-93600000D01*
%TO.N,Net-(RV2-Pad3)*%
X75475000Y-82175000D02*
X75475000Y-84715000D01*
X84065000Y-137235000D02*
X84065000Y-154360000D01*
X73310000Y-131160000D02*
X76270000Y-134120000D01*
X82610000Y-135530000D02*
X82610000Y-135780000D01*
X77460000Y-86700000D02*
X75475000Y-84715000D01*
X77430000Y-121890000D02*
X77750000Y-122210000D01*
X76270000Y-134120000D02*
X81200000Y-134120000D01*
X82610000Y-135780000D02*
X84065000Y-137235000D01*
X77460000Y-117960000D02*
X77460000Y-86700000D01*
X77750000Y-125510000D02*
X73310000Y-129950000D01*
X77440000Y-117980000D02*
X77460000Y-117960000D01*
X81200000Y-134120000D02*
X82610000Y-135530000D01*
X73310000Y-129950000D02*
X73310000Y-131160000D01*
X77750000Y-122210000D02*
X77750000Y-125510000D01*
%TO.N,Net-(RV2-Pad6)*%
X88900000Y-154605000D02*
X86605000Y-156900000D01*
X82042000Y-125100000D02*
X82042000Y-131826000D01*
X69475000Y-87255000D02*
X71882000Y-89662000D01*
X71882000Y-89662000D02*
X71882000Y-114300000D01*
X71882000Y-114300000D02*
X79756000Y-122174000D01*
X67855000Y-87255000D02*
X69475000Y-87255000D01*
X88900000Y-138684000D02*
X88900000Y-154605000D01*
X67855000Y-84715000D02*
X67855000Y-87255000D01*
X82042000Y-131826000D02*
X88900000Y-138684000D01*
%TD*%
M02*
