%FSLAX45Y45*%
G04 Gerber Fmt 4.5, Leading zero omitted, Abs format (unit mm)*
G04 Created by KiCad (PCBNEW (6.0.1)) date 2023-06-21 18:57:53*
%MOMM*%
%LPD*%
G01*
G04 APERTURE LIST*
%TA.AperFunction,Profile*%
%ADD10C,0.100000*%
%TD*%
%ADD11C,0.200000*%
%ADD12C,0.040000*%
%ADD13C,0.060000*%
%ADD14C,0.070000*%
%ADD15C,0.080000*%
%ADD16C,0.100000*%
%ADD17C,0.110000*%
%ADD18C,0.270000*%
G04 APERTURE END LIST*
D10*
X9030000Y-5000000D02*
X9030000Y-16000000D01*
X5000000Y-16000000D02*
X5000000Y-5000000D01*
X5000000Y-5000000D02*
X9030000Y-5000000D01*
X9030000Y-16000000D02*
X5000000Y-16000000D01*
D11*
D12*
X5834000Y-9159000D02*
X5874000Y-9199000D01*
X5874000Y-9159000D02*
X5834000Y-9199000D01*
X6006000Y-14768000D02*
X6046000Y-14808000D01*
X6046000Y-14768000D02*
X6006000Y-14808000D01*
X6015000Y-9017000D02*
X6055000Y-9057000D01*
X6055000Y-9017000D02*
X6015000Y-9057000D01*
X6304600Y-7244400D02*
X6344600Y-7284400D01*
X6344600Y-7244400D02*
X6304600Y-7284400D01*
X6475000Y-7470000D02*
X6515000Y-7510000D01*
X6515000Y-7470000D02*
X6475000Y-7510000D01*
X6736400Y-5644200D02*
X6776400Y-5684200D01*
X6776400Y-5644200D02*
X6736400Y-5684200D01*
X6877000Y-14976000D02*
X6917000Y-15016000D01*
X6917000Y-14976000D02*
X6877000Y-15016000D01*
X7008000Y-8566000D02*
X7048000Y-8606000D01*
X7048000Y-8566000D02*
X7008000Y-8606000D01*
X7647000Y-7937000D02*
X7687000Y-7977000D01*
X7687000Y-7937000D02*
X7647000Y-7977000D01*
X7723000Y-12169000D02*
X7763000Y-12209000D01*
X7763000Y-12169000D02*
X7723000Y-12209000D01*
X7724000Y-11778000D02*
X7764000Y-11818000D01*
X7764000Y-11778000D02*
X7724000Y-11818000D01*
X7955600Y-12197400D02*
X7995600Y-12237400D01*
X7995600Y-12197400D02*
X7955600Y-12237400D01*
X8099000Y-5188000D02*
X8139000Y-5228000D01*
X8139000Y-5188000D02*
X8099000Y-5228000D01*
X8184200Y-12490000D02*
X8224200Y-12530000D01*
X8224200Y-12490000D02*
X8184200Y-12530000D01*
X8248000Y-5786000D02*
X8288000Y-5826000D01*
X8288000Y-5786000D02*
X8248000Y-5826000D01*
X8311200Y-10851200D02*
X8351200Y-10891200D01*
X8351200Y-10851200D02*
X8311200Y-10891200D01*
X8314000Y-8522000D02*
X8354000Y-8562000D01*
X8354000Y-8522000D02*
X8314000Y-8562000D01*
X8435000Y-7450000D02*
X8475000Y-7490000D01*
X8475000Y-7450000D02*
X8435000Y-7490000D01*
X8509000Y-6496000D02*
X8549000Y-6536000D01*
X8549000Y-6496000D02*
X8509000Y-6536000D01*
X8630000Y-6215000D02*
X8670000Y-6255000D01*
X8670000Y-6215000D02*
X8630000Y-6255000D01*
D13*
X5192260Y-8855000D02*
G75*
G03*
X5192260Y-8855000I-30000J0D01*
G01*
X5392260Y-8855000D02*
G75*
G03*
X5392260Y-8855000I-30000J0D01*
G01*
X5765000Y-8777740D02*
G75*
G03*
X5765000Y-8777740I-30000J0D01*
G01*
X5765000Y-8977740D02*
G75*
G03*
X5765000Y-8977740I-30000J0D01*
G01*
D14*
X5774000Y-10495000D02*
X5774000Y-10565000D01*
X5739000Y-10530000D02*
X5809000Y-10530000D01*
X5774000Y-11257000D02*
X5774000Y-11327000D01*
X5739000Y-11292000D02*
X5809000Y-11292000D01*
X5853092Y-9331908D02*
X5853092Y-9401908D01*
X5818092Y-9366908D02*
X5888092Y-9366908D01*
X6110000Y-11030000D02*
X6110000Y-11100000D01*
X6075000Y-11065000D02*
X6145000Y-11065000D01*
X6119000Y-11284000D02*
X6119000Y-11354000D01*
X6084000Y-11319000D02*
X6154000Y-11319000D01*
X6235000Y-5134000D02*
X6235000Y-5204000D01*
X6200000Y-5169000D02*
X6270000Y-5169000D01*
X6235000Y-5896000D02*
X6235000Y-5966000D01*
X6200000Y-5931000D02*
X6270000Y-5931000D01*
X6275000Y-7786500D02*
X6275000Y-7856500D01*
X6240000Y-7821500D02*
X6310000Y-7821500D01*
X6275000Y-8548500D02*
X6275000Y-8618500D01*
X6240000Y-8583500D02*
X6310000Y-8583500D01*
X6391908Y-8793092D02*
X6391908Y-8863092D01*
X6356908Y-8828092D02*
X6426908Y-8828092D01*
X6516000Y-5134000D02*
X6516000Y-5204000D01*
X6481000Y-5169000D02*
X6551000Y-5169000D01*
X6516000Y-5896000D02*
X6516000Y-5966000D01*
X6481000Y-5931000D02*
X6551000Y-5931000D01*
X6772000Y-9316000D02*
X6772000Y-9386000D01*
X6737000Y-9351000D02*
X6807000Y-9351000D01*
X6784000Y-10712500D02*
X6784000Y-10782500D01*
X6749000Y-10747500D02*
X6819000Y-10747500D01*
X6872000Y-11030000D02*
X6872000Y-11100000D01*
X6837000Y-11065000D02*
X6907000Y-11065000D01*
X6881000Y-11284000D02*
X6881000Y-11354000D01*
X6846000Y-11319000D02*
X6916000Y-11319000D01*
X7039000Y-15660000D02*
X7039000Y-15730000D01*
X7004000Y-15695000D02*
X7074000Y-15695000D01*
X7052500Y-14589000D02*
X7052500Y-14659000D01*
X7017500Y-14624000D02*
X7087500Y-14624000D01*
X7052500Y-15351000D02*
X7052500Y-15421000D01*
X7017500Y-15386000D02*
X7087500Y-15386000D01*
X7061200Y-13554000D02*
X7061200Y-13624000D01*
X7026200Y-13589000D02*
X7096200Y-13589000D01*
X7061200Y-14316000D02*
X7061200Y-14386000D01*
X7026200Y-14351000D02*
X7096200Y-14351000D01*
X7379000Y-11005000D02*
X7379000Y-11075000D01*
X7344000Y-11040000D02*
X7414000Y-11040000D01*
X7381500Y-11282500D02*
X7381500Y-11352500D01*
X7346500Y-11317500D02*
X7416500Y-11317500D01*
X7429000Y-7790000D02*
X7429000Y-7860000D01*
X7394000Y-7825000D02*
X7464000Y-7825000D01*
X7534000Y-9316000D02*
X7534000Y-9386000D01*
X7499000Y-9351000D02*
X7569000Y-9351000D01*
X7546000Y-10712500D02*
X7546000Y-10782500D01*
X7511000Y-10747500D02*
X7581000Y-10747500D01*
X7801000Y-15660000D02*
X7801000Y-15730000D01*
X7766000Y-15695000D02*
X7836000Y-15695000D01*
X7901000Y-5483500D02*
X7901000Y-5553500D01*
X7866000Y-5518500D02*
X7936000Y-5518500D01*
X7901000Y-6245500D02*
X7901000Y-6315500D01*
X7866000Y-6280500D02*
X7936000Y-6280500D01*
X7925000Y-9950000D02*
X7925000Y-10020000D01*
X7890000Y-9985000D02*
X7960000Y-9985000D01*
X7925000Y-10712000D02*
X7925000Y-10782000D01*
X7890000Y-10747000D02*
X7960000Y-10747000D01*
X8012000Y-13553000D02*
X8012000Y-13623000D01*
X7977000Y-13588000D02*
X8047000Y-13588000D01*
X8141000Y-11005000D02*
X8141000Y-11075000D01*
X8106000Y-11040000D02*
X8176000Y-11040000D01*
X8143500Y-11282500D02*
X8143500Y-11352500D01*
X8108500Y-11317500D02*
X8178500Y-11317500D01*
X8191000Y-7790000D02*
X8191000Y-7860000D01*
X8156000Y-7825000D02*
X8226000Y-7825000D01*
X8767500Y-6429000D02*
X8767500Y-6499000D01*
X8732500Y-6464000D02*
X8802500Y-6464000D01*
X8767500Y-7191000D02*
X8767500Y-7261000D01*
X8732500Y-7226000D02*
X8802500Y-7226000D01*
X8774000Y-13553000D02*
X8774000Y-13623000D01*
X8739000Y-13588000D02*
X8809000Y-13588000D01*
X8817500Y-8164000D02*
X8817500Y-8234000D01*
X8782500Y-8199000D02*
X8852500Y-8199000D01*
X8817500Y-8926000D02*
X8817500Y-8996000D01*
X8782500Y-8961000D02*
X8852500Y-8961000D01*
D15*
X5280273Y-13663284D02*
X5280273Y-13606715D01*
X5223704Y-13606715D01*
X5223704Y-13663284D01*
X5280273Y-13663284D01*
X5480273Y-13663284D02*
X5480273Y-13606715D01*
X5423704Y-13606715D01*
X5423704Y-13663284D01*
X5480273Y-13663284D01*
X6126284Y-10340285D02*
X6126284Y-10283716D01*
X6069715Y-10283716D01*
X6069715Y-10340285D01*
X6126284Y-10340285D01*
X6126284Y-10840285D02*
X6126284Y-10783716D01*
X6069715Y-10783716D01*
X6069715Y-10840285D01*
X6126284Y-10840285D01*
X6242773Y-13653284D02*
X6242773Y-13596715D01*
X6186204Y-13596715D01*
X6186204Y-13653284D01*
X6242773Y-13653284D01*
X6315784Y-7018284D02*
X6315784Y-6961715D01*
X6259215Y-6961715D01*
X6259215Y-7018284D01*
X6315784Y-7018284D01*
X6315784Y-7518284D02*
X6315784Y-7461715D01*
X6259215Y-7461715D01*
X6259215Y-7518284D01*
X6315784Y-7518284D01*
X6353284Y-6258284D02*
X6353284Y-6201715D01*
X6296715Y-6201715D01*
X6296715Y-6258284D01*
X6353284Y-6258284D01*
X6353284Y-6758284D02*
X6353284Y-6701715D01*
X6296715Y-6701715D01*
X6296715Y-6758284D01*
X6353284Y-6758284D01*
X6442773Y-13653284D02*
X6442773Y-13596715D01*
X6386204Y-13596715D01*
X6386204Y-13653284D01*
X6442773Y-13653284D01*
X6458284Y-9425785D02*
X6458284Y-9369216D01*
X6401715Y-9369216D01*
X6401715Y-9425785D01*
X6458284Y-9425785D01*
X6458284Y-9925785D02*
X6458284Y-9869216D01*
X6401715Y-9869216D01*
X6401715Y-9925785D01*
X6458284Y-9925785D01*
X6458284Y-10168285D02*
X6458284Y-10111716D01*
X6401715Y-10111716D01*
X6401715Y-10168285D01*
X6458284Y-10168285D01*
X6458284Y-10668285D02*
X6458284Y-10611716D01*
X6401715Y-10611716D01*
X6401715Y-10668285D01*
X6458284Y-10668285D01*
X6717284Y-7872284D02*
X6717284Y-7815715D01*
X6660715Y-7815715D01*
X6660715Y-7872284D01*
X6717284Y-7872284D01*
X6791284Y-9668285D02*
X6791284Y-9611716D01*
X6734715Y-9611716D01*
X6734715Y-9668285D01*
X6791284Y-9668285D01*
X6791284Y-9922285D02*
X6791284Y-9865716D01*
X6734715Y-9865716D01*
X6734715Y-9922285D01*
X6791284Y-9922285D01*
X6791284Y-10176285D02*
X6791284Y-10119716D01*
X6734715Y-10119716D01*
X6734715Y-10176285D01*
X6791284Y-10176285D01*
X6791284Y-10430285D02*
X6791284Y-10373716D01*
X6734715Y-10373716D01*
X6734715Y-10430285D01*
X6791284Y-10430285D01*
X6813784Y-8245784D02*
X6813784Y-8189215D01*
X6757215Y-8189215D01*
X6757215Y-8245784D01*
X6813784Y-8245784D01*
X6813784Y-8499785D02*
X6813784Y-8443216D01*
X6757215Y-8443216D01*
X6757215Y-8499785D01*
X6813784Y-8499785D01*
X6813784Y-8753785D02*
X6813784Y-8697216D01*
X6757215Y-8697216D01*
X6757215Y-8753785D01*
X6813784Y-8753785D01*
X6813784Y-9007785D02*
X6813784Y-8951216D01*
X6757215Y-8951216D01*
X6757215Y-9007785D01*
X6813784Y-9007785D01*
X6842284Y-5992784D02*
X6842284Y-5936215D01*
X6785715Y-5936215D01*
X6785715Y-5992784D01*
X6842284Y-5992784D01*
X6842284Y-6246784D02*
X6842284Y-6190215D01*
X6785715Y-6190215D01*
X6785715Y-6246784D01*
X6842284Y-6246784D01*
X6842284Y-6500784D02*
X6842284Y-6444215D01*
X6785715Y-6444215D01*
X6785715Y-6500784D01*
X6842284Y-6500784D01*
X6842284Y-6754784D02*
X6842284Y-6698215D01*
X6785715Y-6698215D01*
X6785715Y-6754784D01*
X6842284Y-6754784D01*
X6842284Y-7008784D02*
X6842284Y-6952215D01*
X6785715Y-6952215D01*
X6785715Y-7008784D01*
X6842284Y-7008784D01*
X6842284Y-7262784D02*
X6842284Y-7206215D01*
X6785715Y-7206215D01*
X6785715Y-7262784D01*
X6842284Y-7262784D01*
X6842284Y-7516784D02*
X6842284Y-7460215D01*
X6785715Y-7460215D01*
X6785715Y-7516784D01*
X6842284Y-7516784D01*
X7134284Y-5257785D02*
X7134284Y-5201216D01*
X7077715Y-5201216D01*
X7077715Y-5257785D01*
X7134284Y-5257785D01*
X7134284Y-5627784D02*
X7134284Y-5571216D01*
X7077715Y-5571216D01*
X7077715Y-5627784D01*
X7134284Y-5627784D01*
X7217284Y-7872284D02*
X7217284Y-7815715D01*
X7160715Y-7815715D01*
X7160715Y-7872284D01*
X7217284Y-7872284D01*
X7292684Y-6030284D02*
X7292684Y-5973715D01*
X7236115Y-5973715D01*
X7236115Y-6030284D01*
X7292684Y-6030284D01*
X7292684Y-6530284D02*
X7292684Y-6473715D01*
X7236115Y-6473715D01*
X7236115Y-6530284D01*
X7292684Y-6530284D01*
X7410784Y-15045784D02*
X7410784Y-14989215D01*
X7354215Y-14989215D01*
X7354215Y-15045784D01*
X7410784Y-15045784D01*
X7496884Y-13923084D02*
X7496884Y-13866515D01*
X7440315Y-13866515D01*
X7440315Y-13923084D01*
X7496884Y-13923084D01*
X7496884Y-14685084D02*
X7496884Y-14628515D01*
X7440315Y-14628515D01*
X7440315Y-14685084D01*
X7496884Y-14685084D01*
X7553284Y-9668285D02*
X7553284Y-9611716D01*
X7496715Y-9611716D01*
X7496715Y-9668285D01*
X7553284Y-9668285D01*
X7553284Y-9922285D02*
X7553284Y-9865716D01*
X7496715Y-9865716D01*
X7496715Y-9922285D01*
X7553284Y-9922285D01*
X7553284Y-10176285D02*
X7553284Y-10119716D01*
X7496715Y-10119716D01*
X7496715Y-10176285D01*
X7553284Y-10176285D01*
X7553284Y-10430285D02*
X7553284Y-10373716D01*
X7496715Y-10373716D01*
X7496715Y-10430285D01*
X7553284Y-10430285D01*
X7575784Y-8245784D02*
X7575784Y-8189215D01*
X7519215Y-8189215D01*
X7519215Y-8245784D01*
X7575784Y-8245784D01*
X7575784Y-8499785D02*
X7575784Y-8443216D01*
X7519215Y-8443216D01*
X7519215Y-8499785D01*
X7575784Y-8499785D01*
X7575784Y-8753785D02*
X7575784Y-8697216D01*
X7519215Y-8697216D01*
X7519215Y-8753785D01*
X7575784Y-8753785D01*
X7575784Y-9007785D02*
X7575784Y-8951216D01*
X7519215Y-8951216D01*
X7519215Y-9007785D01*
X7575784Y-9007785D01*
X7604284Y-5992784D02*
X7604284Y-5936215D01*
X7547715Y-5936215D01*
X7547715Y-5992784D01*
X7604284Y-5992784D01*
X7604284Y-6246784D02*
X7604284Y-6190215D01*
X7547715Y-6190215D01*
X7547715Y-6246784D01*
X7604284Y-6246784D01*
X7604284Y-6500784D02*
X7604284Y-6444215D01*
X7547715Y-6444215D01*
X7547715Y-6500784D01*
X7604284Y-6500784D01*
X7604284Y-6754784D02*
X7604284Y-6698215D01*
X7547715Y-6698215D01*
X7547715Y-6754784D01*
X7604284Y-6754784D01*
X7604284Y-7008784D02*
X7604284Y-6952215D01*
X7547715Y-6952215D01*
X7547715Y-7008784D01*
X7604284Y-7008784D01*
X7604284Y-7262784D02*
X7604284Y-7206215D01*
X7547715Y-7206215D01*
X7547715Y-7262784D01*
X7604284Y-7262784D01*
X7604284Y-7516784D02*
X7604284Y-7460215D01*
X7547715Y-7460215D01*
X7547715Y-7516784D01*
X7604284Y-7516784D01*
X7634284Y-5257785D02*
X7634284Y-5201216D01*
X7577715Y-5201216D01*
X7577715Y-5257785D01*
X7634284Y-5257785D01*
X7634284Y-5627784D02*
X7634284Y-5571216D01*
X7577715Y-5571216D01*
X7577715Y-5627784D01*
X7634284Y-5627784D01*
X7750884Y-13923084D02*
X7750884Y-13866515D01*
X7694315Y-13866515D01*
X7694315Y-13923084D01*
X7750884Y-13923084D01*
X7750884Y-14685084D02*
X7750884Y-14628515D01*
X7694315Y-14628515D01*
X7694315Y-14685084D01*
X7750884Y-14685084D01*
X7910784Y-15045784D02*
X7910784Y-14989215D01*
X7854215Y-14989215D01*
X7854215Y-15045784D01*
X7910784Y-15045784D01*
X7931784Y-6750284D02*
X7931784Y-6693715D01*
X7875215Y-6693715D01*
X7875215Y-6750284D01*
X7931784Y-6750284D01*
X7931784Y-7250284D02*
X7931784Y-7193715D01*
X7875215Y-7193715D01*
X7875215Y-7250284D01*
X7931784Y-7250284D01*
X7956284Y-8572285D02*
X7956284Y-8515716D01*
X7899715Y-8515716D01*
X7899715Y-8572285D01*
X7956284Y-8572285D01*
X7956284Y-9072285D02*
X7956284Y-9015716D01*
X7899715Y-9015716D01*
X7899715Y-9072285D01*
X7956284Y-9072285D01*
X8004884Y-13923084D02*
X8004884Y-13866515D01*
X7948315Y-13866515D01*
X7948315Y-13923084D01*
X8004884Y-13923084D01*
X8004884Y-14685084D02*
X8004884Y-14628515D01*
X7948315Y-14628515D01*
X7948315Y-14685084D01*
X8004884Y-14685084D01*
X8174284Y-7552784D02*
X8174284Y-7496215D01*
X8117715Y-7496215D01*
X8117715Y-7552784D01*
X8174284Y-7552784D01*
X8180784Y-15045784D02*
X8180784Y-14989215D01*
X8124215Y-14989215D01*
X8124215Y-15045784D01*
X8180784Y-15045784D01*
X8258884Y-13923084D02*
X8258884Y-13866515D01*
X8202315Y-13866515D01*
X8202315Y-13923084D01*
X8258884Y-13923084D01*
X8258884Y-14685084D02*
X8258884Y-14628515D01*
X8202315Y-14628515D01*
X8202315Y-14685084D01*
X8258884Y-14685084D01*
X8269284Y-6490284D02*
X8269284Y-6433715D01*
X8212715Y-6433715D01*
X8212715Y-6490284D01*
X8269284Y-6490284D01*
X8269284Y-6990284D02*
X8269284Y-6933715D01*
X8212715Y-6933715D01*
X8212715Y-6990284D01*
X8269284Y-6990284D01*
X8613485Y-14205484D02*
X8613485Y-14148915D01*
X8556916Y-14148915D01*
X8556916Y-14205484D01*
X8613485Y-14205484D01*
X8613485Y-14705484D02*
X8613485Y-14648915D01*
X8556916Y-14648915D01*
X8556916Y-14705484D01*
X8613485Y-14705484D01*
X8674285Y-7552784D02*
X8674285Y-7496215D01*
X8617716Y-7496215D01*
X8617716Y-7552784D01*
X8674285Y-7552784D01*
X8680785Y-15045784D02*
X8680785Y-14989215D01*
X8624216Y-14989215D01*
X8624216Y-15045784D01*
X8680785Y-15045784D01*
D16*
X5225000Y-9455000D02*
X5275000Y-9405000D01*
X5225000Y-9355000D01*
X5175000Y-9405000D01*
X5225000Y-9455000D01*
X5439750Y-5667000D02*
X5489750Y-5617000D01*
X5439750Y-5567000D01*
X5389750Y-5617000D01*
X5439750Y-5667000D01*
X5439750Y-5921000D02*
X5489750Y-5871000D01*
X5439750Y-5821000D01*
X5389750Y-5871000D01*
X5439750Y-5921000D01*
X5439750Y-6175000D02*
X5489750Y-6125000D01*
X5439750Y-6075000D01*
X5389750Y-6125000D01*
X5439750Y-6175000D01*
X5439750Y-6429000D02*
X5489750Y-6379000D01*
X5439750Y-6329000D01*
X5389750Y-6379000D01*
X5439750Y-6429000D01*
X5439750Y-6683000D02*
X5489750Y-6633000D01*
X5439750Y-6583000D01*
X5389750Y-6633000D01*
X5439750Y-6683000D01*
X5479000Y-9455000D02*
X5529000Y-9405000D01*
X5479000Y-9355000D01*
X5429000Y-9405000D01*
X5479000Y-9455000D01*
X5693750Y-5667000D02*
X5743750Y-5617000D01*
X5693750Y-5567000D01*
X5643750Y-5617000D01*
X5693750Y-5667000D01*
X5693750Y-5921000D02*
X5743750Y-5871000D01*
X5693750Y-5821000D01*
X5643750Y-5871000D01*
X5693750Y-5921000D01*
X5693750Y-6175000D02*
X5743750Y-6125000D01*
X5693750Y-6075000D01*
X5643750Y-6125000D01*
X5693750Y-6175000D01*
X5693750Y-6429000D02*
X5743750Y-6379000D01*
X5693750Y-6329000D01*
X5643750Y-6379000D01*
X5693750Y-6429000D01*
X5693750Y-6683000D02*
X5743750Y-6633000D01*
X5693750Y-6583000D01*
X5643750Y-6633000D01*
X5693750Y-6683000D01*
X8152500Y-15486000D02*
X8202500Y-15436000D01*
X8152500Y-15386000D01*
X8102500Y-15436000D01*
X8152500Y-15486000D01*
X8152500Y-15740000D02*
X8202500Y-15690000D01*
X8152500Y-15640000D01*
X8102500Y-15690000D01*
X8152500Y-15740000D01*
X8406500Y-15486000D02*
X8456500Y-15436000D01*
X8406500Y-15386000D01*
X8356500Y-15436000D01*
X8406500Y-15486000D01*
X8406500Y-15740000D02*
X8456500Y-15690000D01*
X8406500Y-15640000D01*
X8356500Y-15690000D01*
X8406500Y-15740000D01*
X8487500Y-5505000D02*
X8537500Y-5455000D01*
X8487500Y-5405000D01*
X8437500Y-5455000D01*
X8487500Y-5505000D01*
X8487500Y-5759000D02*
X8537500Y-5709000D01*
X8487500Y-5659000D01*
X8437500Y-5709000D01*
X8487500Y-5759000D01*
X8487500Y-6013000D02*
X8537500Y-5963000D01*
X8487500Y-5913000D01*
X8437500Y-5963000D01*
X8487500Y-6013000D01*
X8511000Y-9340000D02*
X8561000Y-9290000D01*
X8511000Y-9240000D01*
X8461000Y-9290000D01*
X8511000Y-9340000D01*
X8660500Y-15486000D02*
X8710500Y-15436000D01*
X8660500Y-15386000D01*
X8610500Y-15436000D01*
X8660500Y-15486000D01*
X8660500Y-15740000D02*
X8710500Y-15690000D01*
X8660500Y-15640000D01*
X8610500Y-15690000D01*
X8660500Y-15740000D01*
X8741500Y-5505000D02*
X8791500Y-5455000D01*
X8741500Y-5405000D01*
X8691500Y-5455000D01*
X8741500Y-5505000D01*
X8741500Y-5759000D02*
X8791500Y-5709000D01*
X8741500Y-5659000D01*
X8691500Y-5709000D01*
X8741500Y-5759000D01*
X8741500Y-6013000D02*
X8791500Y-5963000D01*
X8741500Y-5913000D01*
X8691500Y-5963000D01*
X8741500Y-6013000D01*
X8765000Y-9340000D02*
X8815000Y-9290000D01*
X8765000Y-9240000D01*
X8715000Y-9290000D01*
X8765000Y-9340000D01*
D17*
X5202500Y-7337000D02*
X5312500Y-7447000D01*
X5312500Y-7337000D02*
X5202500Y-7447000D01*
X5312500Y-7392000D02*
G75*
G03*
X5312500Y-7392000I-55000J0D01*
G01*
X5202500Y-8353000D02*
X5312500Y-8463000D01*
X5312500Y-8353000D02*
X5202500Y-8463000D01*
X5312500Y-8408000D02*
G75*
G03*
X5312500Y-8408000I-55000J0D01*
G01*
X5730000Y-7337000D02*
X5840000Y-7447000D01*
X5840000Y-7337000D02*
X5730000Y-7447000D01*
X5840000Y-7392000D02*
G75*
G03*
X5840000Y-7392000I-55000J0D01*
G01*
X5730000Y-8353000D02*
X5840000Y-8463000D01*
X5840000Y-8353000D02*
X5730000Y-8463000D01*
X5840000Y-8408000D02*
G75*
G03*
X5840000Y-8408000I-55000J0D01*
G01*
D18*
X5200000Y-12300000D02*
X5470000Y-12570000D01*
X5470000Y-12300000D02*
X5200000Y-12570000D01*
X5335000Y-12300000D02*
X5335000Y-12570000D01*
X5200000Y-12435000D02*
X5470000Y-12435000D01*
X5200000Y-14815000D02*
X5470000Y-15085000D01*
X5470000Y-14815000D02*
X5200000Y-15085000D01*
X5335000Y-14815000D02*
X5335000Y-15085000D01*
X5200000Y-14950000D02*
X5470000Y-14950000D01*
X5590000Y-12890000D02*
X5860000Y-13160000D01*
X5860000Y-12890000D02*
X5590000Y-13160000D01*
X5725000Y-12890000D02*
X5725000Y-13160000D01*
X5590000Y-13025000D02*
X5860000Y-13025000D01*
X5590000Y-15405000D02*
X5860000Y-15675000D01*
X5860000Y-15405000D02*
X5590000Y-15675000D01*
X5725000Y-15405000D02*
X5725000Y-15675000D01*
X5590000Y-15540000D02*
X5860000Y-15540000D01*
X5890000Y-11610000D02*
X6160000Y-11880000D01*
X6160000Y-11610000D02*
X5890000Y-11880000D01*
X6025000Y-11610000D02*
X6025000Y-11880000D01*
X5890000Y-11745000D02*
X6160000Y-11745000D01*
X5890000Y-14125000D02*
X6160000Y-14395000D01*
X6160000Y-14125000D02*
X5890000Y-14395000D01*
X6025000Y-14125000D02*
X6025000Y-14395000D01*
X5890000Y-14260000D02*
X6160000Y-14260000D01*
X6314000Y-12724000D02*
X6584000Y-12994000D01*
X6584000Y-12724000D02*
X6314000Y-12994000D01*
X6449000Y-12724000D02*
X6449000Y-12994000D01*
X6314000Y-12859000D02*
X6584000Y-12859000D01*
X6314000Y-15239000D02*
X6584000Y-15509000D01*
X6584000Y-15239000D02*
X6314000Y-15509000D01*
X6449000Y-15239000D02*
X6449000Y-15509000D01*
X6314000Y-15374000D02*
X6584000Y-15374000D01*
X6480000Y-12000000D02*
X6750000Y-12270000D01*
X6750000Y-12000000D02*
X6480000Y-12270000D01*
X6615000Y-12000000D02*
X6615000Y-12270000D01*
X6480000Y-12135000D02*
X6750000Y-12135000D01*
X6480000Y-14515000D02*
X6750000Y-14785000D01*
X6750000Y-14515000D02*
X6480000Y-14785000D01*
X6615000Y-14515000D02*
X6615000Y-14785000D01*
X6480000Y-14650000D02*
X6750000Y-14650000D01*
X7280000Y-12300000D02*
X7550000Y-12570000D01*
X7550000Y-12300000D02*
X7280000Y-12570000D01*
X7415000Y-12300000D02*
X7415000Y-12570000D01*
X7280000Y-12435000D02*
X7550000Y-12435000D01*
X7670000Y-12890000D02*
X7940000Y-13160000D01*
X7940000Y-12890000D02*
X7670000Y-13160000D01*
X7805000Y-12890000D02*
X7805000Y-13160000D01*
X7670000Y-13025000D02*
X7940000Y-13025000D01*
X7970000Y-11610000D02*
X8240000Y-11880000D01*
X8240000Y-11610000D02*
X7970000Y-11880000D01*
X8105000Y-11610000D02*
X8105000Y-11880000D01*
X7970000Y-11745000D02*
X8240000Y-11745000D01*
X8394000Y-12724000D02*
X8664000Y-12994000D01*
X8664000Y-12724000D02*
X8394000Y-12994000D01*
X8529000Y-12724000D02*
X8529000Y-12994000D01*
X8394000Y-12859000D02*
X8664000Y-12859000D01*
X8560000Y-12000000D02*
X8830000Y-12270000D01*
X8830000Y-12000000D02*
X8560000Y-12270000D01*
X8695000Y-12000000D02*
X8695000Y-12270000D01*
X8560000Y-12135000D02*
X8830000Y-12135000D01*
D11*
X5252619Y-16315476D02*
X5252619Y-16115476D01*
X5300238Y-16115476D01*
X5328810Y-16125000D01*
X5347857Y-16144048D01*
X5357381Y-16163095D01*
X5366905Y-16201190D01*
X5366905Y-16229762D01*
X5357381Y-16267857D01*
X5347857Y-16286905D01*
X5328810Y-16305952D01*
X5300238Y-16315476D01*
X5252619Y-16315476D01*
X5452619Y-16315476D02*
X5452619Y-16182143D01*
X5452619Y-16220238D02*
X5462143Y-16201190D01*
X5471667Y-16191667D01*
X5490714Y-16182143D01*
X5509762Y-16182143D01*
X5576429Y-16315476D02*
X5576429Y-16182143D01*
X5576429Y-16115476D02*
X5566905Y-16125000D01*
X5576429Y-16134524D01*
X5585952Y-16125000D01*
X5576429Y-16115476D01*
X5576429Y-16134524D01*
X5700238Y-16315476D02*
X5681190Y-16305952D01*
X5671667Y-16286905D01*
X5671667Y-16115476D01*
X5805000Y-16315476D02*
X5785952Y-16305952D01*
X5776428Y-16286905D01*
X5776428Y-16115476D01*
X6033571Y-16315476D02*
X6033571Y-16115476D01*
X6100238Y-16258333D01*
X6166905Y-16115476D01*
X6166905Y-16315476D01*
X6347857Y-16315476D02*
X6347857Y-16210714D01*
X6338333Y-16191667D01*
X6319286Y-16182143D01*
X6281190Y-16182143D01*
X6262143Y-16191667D01*
X6347857Y-16305952D02*
X6328809Y-16315476D01*
X6281190Y-16315476D01*
X6262143Y-16305952D01*
X6252619Y-16286905D01*
X6252619Y-16267857D01*
X6262143Y-16248809D01*
X6281190Y-16239286D01*
X6328809Y-16239286D01*
X6347857Y-16229762D01*
X6443095Y-16182143D02*
X6443095Y-16382143D01*
X6443095Y-16191667D02*
X6462143Y-16182143D01*
X6500238Y-16182143D01*
X6519286Y-16191667D01*
X6528809Y-16201190D01*
X6538333Y-16220238D01*
X6538333Y-16277381D01*
X6528809Y-16296428D01*
X6519286Y-16305952D01*
X6500238Y-16315476D01*
X6462143Y-16315476D01*
X6443095Y-16305952D01*
X6624048Y-16296428D02*
X6633571Y-16305952D01*
X6624048Y-16315476D01*
X6614524Y-16305952D01*
X6624048Y-16296428D01*
X6624048Y-16315476D01*
X6624048Y-16191667D02*
X6633571Y-16201190D01*
X6624048Y-16210714D01*
X6614524Y-16201190D01*
X6624048Y-16191667D01*
X6624048Y-16210714D01*
D12*
X4955000Y-16625000D02*
X4995000Y-16665000D01*
X4995000Y-16625000D02*
X4955000Y-16665000D01*
D11*
X5290714Y-16535476D02*
X5309762Y-16535476D01*
X5328810Y-16545000D01*
X5338333Y-16554524D01*
X5347857Y-16573571D01*
X5357381Y-16611667D01*
X5357381Y-16659286D01*
X5347857Y-16697381D01*
X5338333Y-16716428D01*
X5328810Y-16725952D01*
X5309762Y-16735476D01*
X5290714Y-16735476D01*
X5271667Y-16725952D01*
X5262143Y-16716428D01*
X5252619Y-16697381D01*
X5243095Y-16659286D01*
X5243095Y-16611667D01*
X5252619Y-16573571D01*
X5262143Y-16554524D01*
X5271667Y-16545000D01*
X5290714Y-16535476D01*
X5443095Y-16716428D02*
X5452619Y-16725952D01*
X5443095Y-16735476D01*
X5433571Y-16725952D01*
X5443095Y-16716428D01*
X5443095Y-16735476D01*
X5624048Y-16602143D02*
X5624048Y-16735476D01*
X5576429Y-16525952D02*
X5528810Y-16668809D01*
X5652619Y-16668809D01*
X5766905Y-16535476D02*
X5785952Y-16535476D01*
X5805000Y-16545000D01*
X5814524Y-16554524D01*
X5824048Y-16573571D01*
X5833571Y-16611667D01*
X5833571Y-16659286D01*
X5824048Y-16697381D01*
X5814524Y-16716428D01*
X5805000Y-16725952D01*
X5785952Y-16735476D01*
X5766905Y-16735476D01*
X5747857Y-16725952D01*
X5738333Y-16716428D01*
X5728809Y-16697381D01*
X5719286Y-16659286D01*
X5719286Y-16611667D01*
X5728809Y-16573571D01*
X5738333Y-16554524D01*
X5747857Y-16545000D01*
X5766905Y-16535476D01*
X5957381Y-16535476D02*
X5976428Y-16535476D01*
X5995476Y-16545000D01*
X6005000Y-16554524D01*
X6014524Y-16573571D01*
X6024048Y-16611667D01*
X6024048Y-16659286D01*
X6014524Y-16697381D01*
X6005000Y-16716428D01*
X5995476Y-16725952D01*
X5976428Y-16735476D01*
X5957381Y-16735476D01*
X5938333Y-16725952D01*
X5928809Y-16716428D01*
X5919286Y-16697381D01*
X5909762Y-16659286D01*
X5909762Y-16611667D01*
X5919286Y-16573571D01*
X5928809Y-16554524D01*
X5938333Y-16545000D01*
X5957381Y-16535476D01*
X6109762Y-16735476D02*
X6109762Y-16602143D01*
X6109762Y-16621190D02*
X6119286Y-16611667D01*
X6138333Y-16602143D01*
X6166905Y-16602143D01*
X6185952Y-16611667D01*
X6195476Y-16630714D01*
X6195476Y-16735476D01*
X6195476Y-16630714D02*
X6205000Y-16611667D01*
X6224048Y-16602143D01*
X6252619Y-16602143D01*
X6271667Y-16611667D01*
X6281190Y-16630714D01*
X6281190Y-16735476D01*
X6376428Y-16735476D02*
X6376428Y-16602143D01*
X6376428Y-16621190D02*
X6385952Y-16611667D01*
X6405000Y-16602143D01*
X6433571Y-16602143D01*
X6452619Y-16611667D01*
X6462143Y-16630714D01*
X6462143Y-16735476D01*
X6462143Y-16630714D02*
X6471667Y-16611667D01*
X6490714Y-16602143D01*
X6519286Y-16602143D01*
X6538333Y-16611667D01*
X6547857Y-16630714D01*
X6547857Y-16735476D01*
X6938333Y-16525952D02*
X6766905Y-16783095D01*
X7195476Y-16535476D02*
X7214524Y-16535476D01*
X7233571Y-16545000D01*
X7243095Y-16554524D01*
X7252619Y-16573571D01*
X7262143Y-16611667D01*
X7262143Y-16659286D01*
X7252619Y-16697381D01*
X7243095Y-16716428D01*
X7233571Y-16725952D01*
X7214524Y-16735476D01*
X7195476Y-16735476D01*
X7176428Y-16725952D01*
X7166905Y-16716428D01*
X7157381Y-16697381D01*
X7147857Y-16659286D01*
X7147857Y-16611667D01*
X7157381Y-16573571D01*
X7166905Y-16554524D01*
X7176428Y-16545000D01*
X7195476Y-16535476D01*
X7347857Y-16716428D02*
X7357381Y-16725952D01*
X7347857Y-16735476D01*
X7338333Y-16725952D01*
X7347857Y-16716428D01*
X7347857Y-16735476D01*
X7481190Y-16535476D02*
X7500238Y-16535476D01*
X7519286Y-16545000D01*
X7528809Y-16554524D01*
X7538333Y-16573571D01*
X7547857Y-16611667D01*
X7547857Y-16659286D01*
X7538333Y-16697381D01*
X7528809Y-16716428D01*
X7519286Y-16725952D01*
X7500238Y-16735476D01*
X7481190Y-16735476D01*
X7462143Y-16725952D01*
X7452619Y-16716428D01*
X7443095Y-16697381D01*
X7433571Y-16659286D01*
X7433571Y-16611667D01*
X7443095Y-16573571D01*
X7452619Y-16554524D01*
X7462143Y-16545000D01*
X7481190Y-16535476D01*
X7738333Y-16735476D02*
X7624048Y-16735476D01*
X7681190Y-16735476D02*
X7681190Y-16535476D01*
X7662143Y-16564048D01*
X7643095Y-16583095D01*
X7624048Y-16592619D01*
X7919286Y-16535476D02*
X7824048Y-16535476D01*
X7814524Y-16630714D01*
X7824048Y-16621190D01*
X7843095Y-16611667D01*
X7890714Y-16611667D01*
X7909762Y-16621190D01*
X7919286Y-16630714D01*
X7928809Y-16649762D01*
X7928809Y-16697381D01*
X7919286Y-16716428D01*
X7909762Y-16725952D01*
X7890714Y-16735476D01*
X7843095Y-16735476D01*
X7824048Y-16725952D01*
X7814524Y-16716428D01*
X7995476Y-16535476D02*
X8128809Y-16535476D01*
X8043095Y-16735476D01*
X8195476Y-16535476D02*
X8195476Y-16573571D01*
X8271667Y-16535476D02*
X8271667Y-16573571D01*
X8566905Y-16811667D02*
X8557381Y-16802143D01*
X8538333Y-16773571D01*
X8528810Y-16754524D01*
X8519286Y-16725952D01*
X8509762Y-16678333D01*
X8509762Y-16640238D01*
X8519286Y-16592619D01*
X8528810Y-16564048D01*
X8538333Y-16545000D01*
X8557381Y-16516428D01*
X8566905Y-16506905D01*
X8633571Y-16554524D02*
X8643095Y-16545000D01*
X8662143Y-16535476D01*
X8709762Y-16535476D01*
X8728810Y-16545000D01*
X8738333Y-16554524D01*
X8747857Y-16573571D01*
X8747857Y-16592619D01*
X8738333Y-16621190D01*
X8624048Y-16735476D01*
X8747857Y-16735476D01*
X8871667Y-16535476D02*
X8890714Y-16535476D01*
X8909762Y-16545000D01*
X8919286Y-16554524D01*
X8928810Y-16573571D01*
X8938333Y-16611667D01*
X8938333Y-16659286D01*
X8928810Y-16697381D01*
X8919286Y-16716428D01*
X8909762Y-16725952D01*
X8890714Y-16735476D01*
X8871667Y-16735476D01*
X8852619Y-16725952D01*
X8843095Y-16716428D01*
X8833571Y-16697381D01*
X8824048Y-16659286D01*
X8824048Y-16611667D01*
X8833571Y-16573571D01*
X8843095Y-16554524D01*
X8852619Y-16545000D01*
X8871667Y-16535476D01*
X9176429Y-16735476D02*
X9176429Y-16535476D01*
X9262143Y-16735476D02*
X9262143Y-16630714D01*
X9252619Y-16611667D01*
X9233571Y-16602143D01*
X9205000Y-16602143D01*
X9185952Y-16611667D01*
X9176429Y-16621190D01*
X9385952Y-16735476D02*
X9366905Y-16725952D01*
X9357381Y-16716428D01*
X9347857Y-16697381D01*
X9347857Y-16640238D01*
X9357381Y-16621190D01*
X9366905Y-16611667D01*
X9385952Y-16602143D01*
X9414524Y-16602143D01*
X9433571Y-16611667D01*
X9443095Y-16621190D01*
X9452619Y-16640238D01*
X9452619Y-16697381D01*
X9443095Y-16716428D01*
X9433571Y-16725952D01*
X9414524Y-16735476D01*
X9385952Y-16735476D01*
X9566905Y-16735476D02*
X9547857Y-16725952D01*
X9538333Y-16706905D01*
X9538333Y-16535476D01*
X9719286Y-16725952D02*
X9700238Y-16735476D01*
X9662143Y-16735476D01*
X9643095Y-16725952D01*
X9633571Y-16706905D01*
X9633571Y-16630714D01*
X9643095Y-16611667D01*
X9662143Y-16602143D01*
X9700238Y-16602143D01*
X9719286Y-16611667D01*
X9728810Y-16630714D01*
X9728810Y-16649762D01*
X9633571Y-16668809D01*
X9805000Y-16725952D02*
X9824048Y-16735476D01*
X9862143Y-16735476D01*
X9881190Y-16725952D01*
X9890714Y-16706905D01*
X9890714Y-16697381D01*
X9881190Y-16678333D01*
X9862143Y-16668809D01*
X9833571Y-16668809D01*
X9814524Y-16659286D01*
X9805000Y-16640238D01*
X9805000Y-16630714D01*
X9814524Y-16611667D01*
X9833571Y-16602143D01*
X9862143Y-16602143D01*
X9881190Y-16611667D01*
X9957381Y-16811667D02*
X9966905Y-16802143D01*
X9985952Y-16773571D01*
X9995476Y-16754524D01*
X10005000Y-16725952D01*
X10014524Y-16678333D01*
X10014524Y-16640238D01*
X10005000Y-16592619D01*
X9995476Y-16564048D01*
X9985952Y-16545000D01*
X9966905Y-16516428D01*
X9957381Y-16506905D01*
D13*
X4995000Y-16909000D02*
G75*
G03*
X4995000Y-16909000I-30000J0D01*
G01*
D11*
X5290714Y-16799476D02*
X5309762Y-16799476D01*
X5328810Y-16809000D01*
X5338333Y-16818524D01*
X5347857Y-16837571D01*
X5357381Y-16875667D01*
X5357381Y-16923286D01*
X5347857Y-16961381D01*
X5338333Y-16980429D01*
X5328810Y-16989952D01*
X5309762Y-16999476D01*
X5290714Y-16999476D01*
X5271667Y-16989952D01*
X5262143Y-16980429D01*
X5252619Y-16961381D01*
X5243095Y-16923286D01*
X5243095Y-16875667D01*
X5252619Y-16837571D01*
X5262143Y-16818524D01*
X5271667Y-16809000D01*
X5290714Y-16799476D01*
X5443095Y-16980429D02*
X5452619Y-16989952D01*
X5443095Y-16999476D01*
X5433571Y-16989952D01*
X5443095Y-16980429D01*
X5443095Y-16999476D01*
X5624048Y-16799476D02*
X5585952Y-16799476D01*
X5566905Y-16809000D01*
X5557381Y-16818524D01*
X5538333Y-16847095D01*
X5528810Y-16885190D01*
X5528810Y-16961381D01*
X5538333Y-16980429D01*
X5547857Y-16989952D01*
X5566905Y-16999476D01*
X5605000Y-16999476D01*
X5624048Y-16989952D01*
X5633571Y-16980429D01*
X5643095Y-16961381D01*
X5643095Y-16913762D01*
X5633571Y-16894714D01*
X5624048Y-16885190D01*
X5605000Y-16875667D01*
X5566905Y-16875667D01*
X5547857Y-16885190D01*
X5538333Y-16894714D01*
X5528810Y-16913762D01*
X5766905Y-16799476D02*
X5785952Y-16799476D01*
X5805000Y-16809000D01*
X5814524Y-16818524D01*
X5824048Y-16837571D01*
X5833571Y-16875667D01*
X5833571Y-16923286D01*
X5824048Y-16961381D01*
X5814524Y-16980429D01*
X5805000Y-16989952D01*
X5785952Y-16999476D01*
X5766905Y-16999476D01*
X5747857Y-16989952D01*
X5738333Y-16980429D01*
X5728809Y-16961381D01*
X5719286Y-16923286D01*
X5719286Y-16875667D01*
X5728809Y-16837571D01*
X5738333Y-16818524D01*
X5747857Y-16809000D01*
X5766905Y-16799476D01*
X5957381Y-16799476D02*
X5976428Y-16799476D01*
X5995476Y-16809000D01*
X6005000Y-16818524D01*
X6014524Y-16837571D01*
X6024048Y-16875667D01*
X6024048Y-16923286D01*
X6014524Y-16961381D01*
X6005000Y-16980429D01*
X5995476Y-16989952D01*
X5976428Y-16999476D01*
X5957381Y-16999476D01*
X5938333Y-16989952D01*
X5928809Y-16980429D01*
X5919286Y-16961381D01*
X5909762Y-16923286D01*
X5909762Y-16875667D01*
X5919286Y-16837571D01*
X5928809Y-16818524D01*
X5938333Y-16809000D01*
X5957381Y-16799476D01*
X6109762Y-16999476D02*
X6109762Y-16866143D01*
X6109762Y-16885190D02*
X6119286Y-16875667D01*
X6138333Y-16866143D01*
X6166905Y-16866143D01*
X6185952Y-16875667D01*
X6195476Y-16894714D01*
X6195476Y-16999476D01*
X6195476Y-16894714D02*
X6205000Y-16875667D01*
X6224048Y-16866143D01*
X6252619Y-16866143D01*
X6271667Y-16875667D01*
X6281190Y-16894714D01*
X6281190Y-16999476D01*
X6376428Y-16999476D02*
X6376428Y-16866143D01*
X6376428Y-16885190D02*
X6385952Y-16875667D01*
X6405000Y-16866143D01*
X6433571Y-16866143D01*
X6452619Y-16875667D01*
X6462143Y-16894714D01*
X6462143Y-16999476D01*
X6462143Y-16894714D02*
X6471667Y-16875667D01*
X6490714Y-16866143D01*
X6519286Y-16866143D01*
X6538333Y-16875667D01*
X6547857Y-16894714D01*
X6547857Y-16999476D01*
X6938333Y-16789952D02*
X6766905Y-17047095D01*
X7195476Y-16799476D02*
X7214524Y-16799476D01*
X7233571Y-16809000D01*
X7243095Y-16818524D01*
X7252619Y-16837571D01*
X7262143Y-16875667D01*
X7262143Y-16923286D01*
X7252619Y-16961381D01*
X7243095Y-16980429D01*
X7233571Y-16989952D01*
X7214524Y-16999476D01*
X7195476Y-16999476D01*
X7176428Y-16989952D01*
X7166905Y-16980429D01*
X7157381Y-16961381D01*
X7147857Y-16923286D01*
X7147857Y-16875667D01*
X7157381Y-16837571D01*
X7166905Y-16818524D01*
X7176428Y-16809000D01*
X7195476Y-16799476D01*
X7347857Y-16980429D02*
X7357381Y-16989952D01*
X7347857Y-16999476D01*
X7338333Y-16989952D01*
X7347857Y-16980429D01*
X7347857Y-16999476D01*
X7481190Y-16799476D02*
X7500238Y-16799476D01*
X7519286Y-16809000D01*
X7528809Y-16818524D01*
X7538333Y-16837571D01*
X7547857Y-16875667D01*
X7547857Y-16923286D01*
X7538333Y-16961381D01*
X7528809Y-16980429D01*
X7519286Y-16989952D01*
X7500238Y-16999476D01*
X7481190Y-16999476D01*
X7462143Y-16989952D01*
X7452619Y-16980429D01*
X7443095Y-16961381D01*
X7433571Y-16923286D01*
X7433571Y-16875667D01*
X7443095Y-16837571D01*
X7452619Y-16818524D01*
X7462143Y-16809000D01*
X7481190Y-16799476D01*
X7624048Y-16818524D02*
X7633571Y-16809000D01*
X7652619Y-16799476D01*
X7700238Y-16799476D01*
X7719286Y-16809000D01*
X7728809Y-16818524D01*
X7738333Y-16837571D01*
X7738333Y-16856619D01*
X7728809Y-16885190D01*
X7614524Y-16999476D01*
X7738333Y-16999476D01*
X7805000Y-16799476D02*
X7928809Y-16799476D01*
X7862143Y-16875667D01*
X7890714Y-16875667D01*
X7909762Y-16885190D01*
X7919286Y-16894714D01*
X7928809Y-16913762D01*
X7928809Y-16961381D01*
X7919286Y-16980429D01*
X7909762Y-16989952D01*
X7890714Y-16999476D01*
X7833571Y-16999476D01*
X7814524Y-16989952D01*
X7805000Y-16980429D01*
X8100238Y-16799476D02*
X8062143Y-16799476D01*
X8043095Y-16809000D01*
X8033571Y-16818524D01*
X8014524Y-16847095D01*
X8005000Y-16885190D01*
X8005000Y-16961381D01*
X8014524Y-16980429D01*
X8024048Y-16989952D01*
X8043095Y-16999476D01*
X8081190Y-16999476D01*
X8100238Y-16989952D01*
X8109762Y-16980429D01*
X8119286Y-16961381D01*
X8119286Y-16913762D01*
X8109762Y-16894714D01*
X8100238Y-16885190D01*
X8081190Y-16875667D01*
X8043095Y-16875667D01*
X8024048Y-16885190D01*
X8014524Y-16894714D01*
X8005000Y-16913762D01*
X8195476Y-16799476D02*
X8195476Y-16837571D01*
X8271667Y-16799476D02*
X8271667Y-16837571D01*
X8566905Y-17075667D02*
X8557381Y-17066143D01*
X8538333Y-17037571D01*
X8528810Y-17018524D01*
X8519286Y-16989952D01*
X8509762Y-16942333D01*
X8509762Y-16904238D01*
X8519286Y-16856619D01*
X8528810Y-16828048D01*
X8538333Y-16809000D01*
X8557381Y-16780429D01*
X8566905Y-16770905D01*
X8728810Y-16866143D02*
X8728810Y-16999476D01*
X8681190Y-16789952D02*
X8633571Y-16932810D01*
X8757381Y-16932810D01*
X8985952Y-16999476D02*
X8985952Y-16799476D01*
X9071667Y-16999476D02*
X9071667Y-16894714D01*
X9062143Y-16875667D01*
X9043095Y-16866143D01*
X9014524Y-16866143D01*
X8995476Y-16875667D01*
X8985952Y-16885190D01*
X9195476Y-16999476D02*
X9176429Y-16989952D01*
X9166905Y-16980429D01*
X9157381Y-16961381D01*
X9157381Y-16904238D01*
X9166905Y-16885190D01*
X9176429Y-16875667D01*
X9195476Y-16866143D01*
X9224048Y-16866143D01*
X9243095Y-16875667D01*
X9252619Y-16885190D01*
X9262143Y-16904238D01*
X9262143Y-16961381D01*
X9252619Y-16980429D01*
X9243095Y-16989952D01*
X9224048Y-16999476D01*
X9195476Y-16999476D01*
X9376429Y-16999476D02*
X9357381Y-16989952D01*
X9347857Y-16970905D01*
X9347857Y-16799476D01*
X9528810Y-16989952D02*
X9509762Y-16999476D01*
X9471667Y-16999476D01*
X9452619Y-16989952D01*
X9443095Y-16970905D01*
X9443095Y-16894714D01*
X9452619Y-16875667D01*
X9471667Y-16866143D01*
X9509762Y-16866143D01*
X9528810Y-16875667D01*
X9538333Y-16894714D01*
X9538333Y-16913762D01*
X9443095Y-16932810D01*
X9614524Y-16989952D02*
X9633571Y-16999476D01*
X9671667Y-16999476D01*
X9690714Y-16989952D01*
X9700238Y-16970905D01*
X9700238Y-16961381D01*
X9690714Y-16942333D01*
X9671667Y-16932810D01*
X9643095Y-16932810D01*
X9624048Y-16923286D01*
X9614524Y-16904238D01*
X9614524Y-16894714D01*
X9624048Y-16875667D01*
X9643095Y-16866143D01*
X9671667Y-16866143D01*
X9690714Y-16875667D01*
X9766905Y-17075667D02*
X9776429Y-17066143D01*
X9795476Y-17037571D01*
X9805000Y-17018524D01*
X9814524Y-16989952D01*
X9824048Y-16942333D01*
X9824048Y-16904238D01*
X9814524Y-16856619D01*
X9805000Y-16828048D01*
X9795476Y-16809000D01*
X9776429Y-16780429D01*
X9766905Y-16770905D01*
D14*
X4960000Y-17138000D02*
X4960000Y-17208000D01*
X4925000Y-17173000D02*
X4995000Y-17173000D01*
D11*
X5290714Y-17063476D02*
X5309762Y-17063476D01*
X5328810Y-17073000D01*
X5338333Y-17082524D01*
X5347857Y-17101571D01*
X5357381Y-17139667D01*
X5357381Y-17187286D01*
X5347857Y-17225381D01*
X5338333Y-17244429D01*
X5328810Y-17253952D01*
X5309762Y-17263476D01*
X5290714Y-17263476D01*
X5271667Y-17253952D01*
X5262143Y-17244429D01*
X5252619Y-17225381D01*
X5243095Y-17187286D01*
X5243095Y-17139667D01*
X5252619Y-17101571D01*
X5262143Y-17082524D01*
X5271667Y-17073000D01*
X5290714Y-17063476D01*
X5443095Y-17244429D02*
X5452619Y-17253952D01*
X5443095Y-17263476D01*
X5433571Y-17253952D01*
X5443095Y-17244429D01*
X5443095Y-17263476D01*
X5519286Y-17063476D02*
X5652619Y-17063476D01*
X5566905Y-17263476D01*
X5766905Y-17063476D02*
X5785952Y-17063476D01*
X5805000Y-17073000D01*
X5814524Y-17082524D01*
X5824048Y-17101571D01*
X5833571Y-17139667D01*
X5833571Y-17187286D01*
X5824048Y-17225381D01*
X5814524Y-17244429D01*
X5805000Y-17253952D01*
X5785952Y-17263476D01*
X5766905Y-17263476D01*
X5747857Y-17253952D01*
X5738333Y-17244429D01*
X5728809Y-17225381D01*
X5719286Y-17187286D01*
X5719286Y-17139667D01*
X5728809Y-17101571D01*
X5738333Y-17082524D01*
X5747857Y-17073000D01*
X5766905Y-17063476D01*
X5957381Y-17063476D02*
X5976428Y-17063476D01*
X5995476Y-17073000D01*
X6005000Y-17082524D01*
X6014524Y-17101571D01*
X6024048Y-17139667D01*
X6024048Y-17187286D01*
X6014524Y-17225381D01*
X6005000Y-17244429D01*
X5995476Y-17253952D01*
X5976428Y-17263476D01*
X5957381Y-17263476D01*
X5938333Y-17253952D01*
X5928809Y-17244429D01*
X5919286Y-17225381D01*
X5909762Y-17187286D01*
X5909762Y-17139667D01*
X5919286Y-17101571D01*
X5928809Y-17082524D01*
X5938333Y-17073000D01*
X5957381Y-17063476D01*
X6109762Y-17263476D02*
X6109762Y-17130143D01*
X6109762Y-17149190D02*
X6119286Y-17139667D01*
X6138333Y-17130143D01*
X6166905Y-17130143D01*
X6185952Y-17139667D01*
X6195476Y-17158714D01*
X6195476Y-17263476D01*
X6195476Y-17158714D02*
X6205000Y-17139667D01*
X6224048Y-17130143D01*
X6252619Y-17130143D01*
X6271667Y-17139667D01*
X6281190Y-17158714D01*
X6281190Y-17263476D01*
X6376428Y-17263476D02*
X6376428Y-17130143D01*
X6376428Y-17149190D02*
X6385952Y-17139667D01*
X6405000Y-17130143D01*
X6433571Y-17130143D01*
X6452619Y-17139667D01*
X6462143Y-17158714D01*
X6462143Y-17263476D01*
X6462143Y-17158714D02*
X6471667Y-17139667D01*
X6490714Y-17130143D01*
X6519286Y-17130143D01*
X6538333Y-17139667D01*
X6547857Y-17158714D01*
X6547857Y-17263476D01*
X6938333Y-17053952D02*
X6766905Y-17311095D01*
X7195476Y-17063476D02*
X7214524Y-17063476D01*
X7233571Y-17073000D01*
X7243095Y-17082524D01*
X7252619Y-17101571D01*
X7262143Y-17139667D01*
X7262143Y-17187286D01*
X7252619Y-17225381D01*
X7243095Y-17244429D01*
X7233571Y-17253952D01*
X7214524Y-17263476D01*
X7195476Y-17263476D01*
X7176428Y-17253952D01*
X7166905Y-17244429D01*
X7157381Y-17225381D01*
X7147857Y-17187286D01*
X7147857Y-17139667D01*
X7157381Y-17101571D01*
X7166905Y-17082524D01*
X7176428Y-17073000D01*
X7195476Y-17063476D01*
X7347857Y-17244429D02*
X7357381Y-17253952D01*
X7347857Y-17263476D01*
X7338333Y-17253952D01*
X7347857Y-17244429D01*
X7347857Y-17263476D01*
X7481190Y-17063476D02*
X7500238Y-17063476D01*
X7519286Y-17073000D01*
X7528809Y-17082524D01*
X7538333Y-17101571D01*
X7547857Y-17139667D01*
X7547857Y-17187286D01*
X7538333Y-17225381D01*
X7528809Y-17244429D01*
X7519286Y-17253952D01*
X7500238Y-17263476D01*
X7481190Y-17263476D01*
X7462143Y-17253952D01*
X7452619Y-17244429D01*
X7443095Y-17225381D01*
X7433571Y-17187286D01*
X7433571Y-17139667D01*
X7443095Y-17101571D01*
X7452619Y-17082524D01*
X7462143Y-17073000D01*
X7481190Y-17063476D01*
X7624048Y-17082524D02*
X7633571Y-17073000D01*
X7652619Y-17063476D01*
X7700238Y-17063476D01*
X7719286Y-17073000D01*
X7728809Y-17082524D01*
X7738333Y-17101571D01*
X7738333Y-17120619D01*
X7728809Y-17149190D01*
X7614524Y-17263476D01*
X7738333Y-17263476D01*
X7805000Y-17063476D02*
X7938333Y-17063476D01*
X7852619Y-17263476D01*
X8100238Y-17063476D02*
X8062143Y-17063476D01*
X8043095Y-17073000D01*
X8033571Y-17082524D01*
X8014524Y-17111095D01*
X8005000Y-17149190D01*
X8005000Y-17225381D01*
X8014524Y-17244429D01*
X8024048Y-17253952D01*
X8043095Y-17263476D01*
X8081190Y-17263476D01*
X8100238Y-17253952D01*
X8109762Y-17244429D01*
X8119286Y-17225381D01*
X8119286Y-17177762D01*
X8109762Y-17158714D01*
X8100238Y-17149190D01*
X8081190Y-17139667D01*
X8043095Y-17139667D01*
X8024048Y-17149190D01*
X8014524Y-17158714D01*
X8005000Y-17177762D01*
X8195476Y-17063476D02*
X8195476Y-17101571D01*
X8271667Y-17063476D02*
X8271667Y-17101571D01*
X8566905Y-17339667D02*
X8557381Y-17330143D01*
X8538333Y-17301571D01*
X8528810Y-17282524D01*
X8519286Y-17253952D01*
X8509762Y-17206333D01*
X8509762Y-17168238D01*
X8519286Y-17120619D01*
X8528810Y-17092048D01*
X8538333Y-17073000D01*
X8557381Y-17044429D01*
X8566905Y-17034905D01*
X8728810Y-17130143D02*
X8728810Y-17263476D01*
X8681190Y-17053952D02*
X8633571Y-17196810D01*
X8757381Y-17196810D01*
X8871667Y-17063476D02*
X8890714Y-17063476D01*
X8909762Y-17073000D01*
X8919286Y-17082524D01*
X8928810Y-17101571D01*
X8938333Y-17139667D01*
X8938333Y-17187286D01*
X8928810Y-17225381D01*
X8919286Y-17244429D01*
X8909762Y-17253952D01*
X8890714Y-17263476D01*
X8871667Y-17263476D01*
X8852619Y-17253952D01*
X8843095Y-17244429D01*
X8833571Y-17225381D01*
X8824048Y-17187286D01*
X8824048Y-17139667D01*
X8833571Y-17101571D01*
X8843095Y-17082524D01*
X8852619Y-17073000D01*
X8871667Y-17063476D01*
X9176429Y-17263476D02*
X9176429Y-17063476D01*
X9262143Y-17263476D02*
X9262143Y-17158714D01*
X9252619Y-17139667D01*
X9233571Y-17130143D01*
X9205000Y-17130143D01*
X9185952Y-17139667D01*
X9176429Y-17149190D01*
X9385952Y-17263476D02*
X9366905Y-17253952D01*
X9357381Y-17244429D01*
X9347857Y-17225381D01*
X9347857Y-17168238D01*
X9357381Y-17149190D01*
X9366905Y-17139667D01*
X9385952Y-17130143D01*
X9414524Y-17130143D01*
X9433571Y-17139667D01*
X9443095Y-17149190D01*
X9452619Y-17168238D01*
X9452619Y-17225381D01*
X9443095Y-17244429D01*
X9433571Y-17253952D01*
X9414524Y-17263476D01*
X9385952Y-17263476D01*
X9566905Y-17263476D02*
X9547857Y-17253952D01*
X9538333Y-17234905D01*
X9538333Y-17063476D01*
X9719286Y-17253952D02*
X9700238Y-17263476D01*
X9662143Y-17263476D01*
X9643095Y-17253952D01*
X9633571Y-17234905D01*
X9633571Y-17158714D01*
X9643095Y-17139667D01*
X9662143Y-17130143D01*
X9700238Y-17130143D01*
X9719286Y-17139667D01*
X9728810Y-17158714D01*
X9728810Y-17177762D01*
X9633571Y-17196810D01*
X9805000Y-17253952D02*
X9824048Y-17263476D01*
X9862143Y-17263476D01*
X9881190Y-17253952D01*
X9890714Y-17234905D01*
X9890714Y-17225381D01*
X9881190Y-17206333D01*
X9862143Y-17196810D01*
X9833571Y-17196810D01*
X9814524Y-17187286D01*
X9805000Y-17168238D01*
X9805000Y-17158714D01*
X9814524Y-17139667D01*
X9833571Y-17130143D01*
X9862143Y-17130143D01*
X9881190Y-17139667D01*
X9957381Y-17339667D02*
X9966905Y-17330143D01*
X9985952Y-17301571D01*
X9995476Y-17282524D01*
X10005000Y-17253952D01*
X10014524Y-17206333D01*
X10014524Y-17168238D01*
X10005000Y-17120619D01*
X9995476Y-17092048D01*
X9985952Y-17073000D01*
X9966905Y-17044429D01*
X9957381Y-17034905D01*
D15*
X4983285Y-17465285D02*
X4983285Y-17408716D01*
X4926716Y-17408716D01*
X4926716Y-17465285D01*
X4983285Y-17465285D01*
D11*
X5290714Y-17327476D02*
X5309762Y-17327476D01*
X5328810Y-17337000D01*
X5338333Y-17346524D01*
X5347857Y-17365571D01*
X5357381Y-17403667D01*
X5357381Y-17451286D01*
X5347857Y-17489381D01*
X5338333Y-17508429D01*
X5328810Y-17517952D01*
X5309762Y-17527476D01*
X5290714Y-17527476D01*
X5271667Y-17517952D01*
X5262143Y-17508429D01*
X5252619Y-17489381D01*
X5243095Y-17451286D01*
X5243095Y-17403667D01*
X5252619Y-17365571D01*
X5262143Y-17346524D01*
X5271667Y-17337000D01*
X5290714Y-17327476D01*
X5443095Y-17508429D02*
X5452619Y-17517952D01*
X5443095Y-17527476D01*
X5433571Y-17517952D01*
X5443095Y-17508429D01*
X5443095Y-17527476D01*
X5566905Y-17413190D02*
X5547857Y-17403667D01*
X5538333Y-17394143D01*
X5528810Y-17375095D01*
X5528810Y-17365571D01*
X5538333Y-17346524D01*
X5547857Y-17337000D01*
X5566905Y-17327476D01*
X5605000Y-17327476D01*
X5624048Y-17337000D01*
X5633571Y-17346524D01*
X5643095Y-17365571D01*
X5643095Y-17375095D01*
X5633571Y-17394143D01*
X5624048Y-17403667D01*
X5605000Y-17413190D01*
X5566905Y-17413190D01*
X5547857Y-17422714D01*
X5538333Y-17432238D01*
X5528810Y-17451286D01*
X5528810Y-17489381D01*
X5538333Y-17508429D01*
X5547857Y-17517952D01*
X5566905Y-17527476D01*
X5605000Y-17527476D01*
X5624048Y-17517952D01*
X5633571Y-17508429D01*
X5643095Y-17489381D01*
X5643095Y-17451286D01*
X5633571Y-17432238D01*
X5624048Y-17422714D01*
X5605000Y-17413190D01*
X5766905Y-17327476D02*
X5785952Y-17327476D01*
X5805000Y-17337000D01*
X5814524Y-17346524D01*
X5824048Y-17365571D01*
X5833571Y-17403667D01*
X5833571Y-17451286D01*
X5824048Y-17489381D01*
X5814524Y-17508429D01*
X5805000Y-17517952D01*
X5785952Y-17527476D01*
X5766905Y-17527476D01*
X5747857Y-17517952D01*
X5738333Y-17508429D01*
X5728809Y-17489381D01*
X5719286Y-17451286D01*
X5719286Y-17403667D01*
X5728809Y-17365571D01*
X5738333Y-17346524D01*
X5747857Y-17337000D01*
X5766905Y-17327476D01*
X5957381Y-17327476D02*
X5976428Y-17327476D01*
X5995476Y-17337000D01*
X6005000Y-17346524D01*
X6014524Y-17365571D01*
X6024048Y-17403667D01*
X6024048Y-17451286D01*
X6014524Y-17489381D01*
X6005000Y-17508429D01*
X5995476Y-17517952D01*
X5976428Y-17527476D01*
X5957381Y-17527476D01*
X5938333Y-17517952D01*
X5928809Y-17508429D01*
X5919286Y-17489381D01*
X5909762Y-17451286D01*
X5909762Y-17403667D01*
X5919286Y-17365571D01*
X5928809Y-17346524D01*
X5938333Y-17337000D01*
X5957381Y-17327476D01*
X6109762Y-17527476D02*
X6109762Y-17394143D01*
X6109762Y-17413190D02*
X6119286Y-17403667D01*
X6138333Y-17394143D01*
X6166905Y-17394143D01*
X6185952Y-17403667D01*
X6195476Y-17422714D01*
X6195476Y-17527476D01*
X6195476Y-17422714D02*
X6205000Y-17403667D01*
X6224048Y-17394143D01*
X6252619Y-17394143D01*
X6271667Y-17403667D01*
X6281190Y-17422714D01*
X6281190Y-17527476D01*
X6376428Y-17527476D02*
X6376428Y-17394143D01*
X6376428Y-17413190D02*
X6385952Y-17403667D01*
X6405000Y-17394143D01*
X6433571Y-17394143D01*
X6452619Y-17403667D01*
X6462143Y-17422714D01*
X6462143Y-17527476D01*
X6462143Y-17422714D02*
X6471667Y-17403667D01*
X6490714Y-17394143D01*
X6519286Y-17394143D01*
X6538333Y-17403667D01*
X6547857Y-17422714D01*
X6547857Y-17527476D01*
X6938333Y-17317952D02*
X6766905Y-17575095D01*
X7195476Y-17327476D02*
X7214524Y-17327476D01*
X7233571Y-17337000D01*
X7243095Y-17346524D01*
X7252619Y-17365571D01*
X7262143Y-17403667D01*
X7262143Y-17451286D01*
X7252619Y-17489381D01*
X7243095Y-17508429D01*
X7233571Y-17517952D01*
X7214524Y-17527476D01*
X7195476Y-17527476D01*
X7176428Y-17517952D01*
X7166905Y-17508429D01*
X7157381Y-17489381D01*
X7147857Y-17451286D01*
X7147857Y-17403667D01*
X7157381Y-17365571D01*
X7166905Y-17346524D01*
X7176428Y-17337000D01*
X7195476Y-17327476D01*
X7347857Y-17508429D02*
X7357381Y-17517952D01*
X7347857Y-17527476D01*
X7338333Y-17517952D01*
X7347857Y-17508429D01*
X7347857Y-17527476D01*
X7481190Y-17327476D02*
X7500238Y-17327476D01*
X7519286Y-17337000D01*
X7528809Y-17346524D01*
X7538333Y-17365571D01*
X7547857Y-17403667D01*
X7547857Y-17451286D01*
X7538333Y-17489381D01*
X7528809Y-17508429D01*
X7519286Y-17517952D01*
X7500238Y-17527476D01*
X7481190Y-17527476D01*
X7462143Y-17517952D01*
X7452619Y-17508429D01*
X7443095Y-17489381D01*
X7433571Y-17451286D01*
X7433571Y-17403667D01*
X7443095Y-17365571D01*
X7452619Y-17346524D01*
X7462143Y-17337000D01*
X7481190Y-17327476D01*
X7614524Y-17327476D02*
X7738333Y-17327476D01*
X7671667Y-17403667D01*
X7700238Y-17403667D01*
X7719286Y-17413190D01*
X7728809Y-17422714D01*
X7738333Y-17441762D01*
X7738333Y-17489381D01*
X7728809Y-17508429D01*
X7719286Y-17517952D01*
X7700238Y-17527476D01*
X7643095Y-17527476D01*
X7624048Y-17517952D01*
X7614524Y-17508429D01*
X7928809Y-17527476D02*
X7814524Y-17527476D01*
X7871667Y-17527476D02*
X7871667Y-17327476D01*
X7852619Y-17356048D01*
X7833571Y-17375095D01*
X7814524Y-17384619D01*
X8109762Y-17327476D02*
X8014524Y-17327476D01*
X8005000Y-17422714D01*
X8014524Y-17413190D01*
X8033571Y-17403667D01*
X8081190Y-17403667D01*
X8100238Y-17413190D01*
X8109762Y-17422714D01*
X8119286Y-17441762D01*
X8119286Y-17489381D01*
X8109762Y-17508429D01*
X8100238Y-17517952D01*
X8081190Y-17527476D01*
X8033571Y-17527476D01*
X8014524Y-17517952D01*
X8005000Y-17508429D01*
X8195476Y-17327476D02*
X8195476Y-17365571D01*
X8271667Y-17327476D02*
X8271667Y-17365571D01*
X8566905Y-17603667D02*
X8557381Y-17594143D01*
X8538333Y-17565571D01*
X8528810Y-17546524D01*
X8519286Y-17517952D01*
X8509762Y-17470333D01*
X8509762Y-17432238D01*
X8519286Y-17384619D01*
X8528810Y-17356048D01*
X8538333Y-17337000D01*
X8557381Y-17308429D01*
X8566905Y-17298905D01*
X8624048Y-17327476D02*
X8757381Y-17327476D01*
X8671667Y-17527476D01*
X8919286Y-17394143D02*
X8919286Y-17527476D01*
X8871667Y-17317952D02*
X8824048Y-17460810D01*
X8947857Y-17460810D01*
X9176429Y-17527476D02*
X9176429Y-17327476D01*
X9262143Y-17527476D02*
X9262143Y-17422714D01*
X9252619Y-17403667D01*
X9233571Y-17394143D01*
X9205000Y-17394143D01*
X9185952Y-17403667D01*
X9176429Y-17413190D01*
X9385952Y-17527476D02*
X9366905Y-17517952D01*
X9357381Y-17508429D01*
X9347857Y-17489381D01*
X9347857Y-17432238D01*
X9357381Y-17413190D01*
X9366905Y-17403667D01*
X9385952Y-17394143D01*
X9414524Y-17394143D01*
X9433571Y-17403667D01*
X9443095Y-17413190D01*
X9452619Y-17432238D01*
X9452619Y-17489381D01*
X9443095Y-17508429D01*
X9433571Y-17517952D01*
X9414524Y-17527476D01*
X9385952Y-17527476D01*
X9566905Y-17527476D02*
X9547857Y-17517952D01*
X9538333Y-17498905D01*
X9538333Y-17327476D01*
X9719286Y-17517952D02*
X9700238Y-17527476D01*
X9662143Y-17527476D01*
X9643095Y-17517952D01*
X9633571Y-17498905D01*
X9633571Y-17422714D01*
X9643095Y-17403667D01*
X9662143Y-17394143D01*
X9700238Y-17394143D01*
X9719286Y-17403667D01*
X9728810Y-17422714D01*
X9728810Y-17441762D01*
X9633571Y-17460810D01*
X9805000Y-17517952D02*
X9824048Y-17527476D01*
X9862143Y-17527476D01*
X9881190Y-17517952D01*
X9890714Y-17498905D01*
X9890714Y-17489381D01*
X9881190Y-17470333D01*
X9862143Y-17460810D01*
X9833571Y-17460810D01*
X9814524Y-17451286D01*
X9805000Y-17432238D01*
X9805000Y-17422714D01*
X9814524Y-17403667D01*
X9833571Y-17394143D01*
X9862143Y-17394143D01*
X9881190Y-17403667D01*
X9957381Y-17603667D02*
X9966905Y-17594143D01*
X9985952Y-17565571D01*
X9995476Y-17546524D01*
X10005000Y-17517952D01*
X10014524Y-17470333D01*
X10014524Y-17432238D01*
X10005000Y-17384619D01*
X9995476Y-17356048D01*
X9985952Y-17337000D01*
X9966905Y-17308429D01*
X9957381Y-17298905D01*
D16*
X4945000Y-17751000D02*
X4995000Y-17701000D01*
X4945000Y-17651000D01*
X4895000Y-17701000D01*
X4945000Y-17751000D01*
D11*
X5357381Y-17791476D02*
X5243095Y-17791476D01*
X5300238Y-17791476D02*
X5300238Y-17591476D01*
X5281190Y-17620048D01*
X5262143Y-17639095D01*
X5243095Y-17648619D01*
X5443095Y-17772429D02*
X5452619Y-17781952D01*
X5443095Y-17791476D01*
X5433571Y-17781952D01*
X5443095Y-17772429D01*
X5443095Y-17791476D01*
X5576429Y-17591476D02*
X5595476Y-17591476D01*
X5614524Y-17601000D01*
X5624048Y-17610524D01*
X5633571Y-17629571D01*
X5643095Y-17667667D01*
X5643095Y-17715286D01*
X5633571Y-17753381D01*
X5624048Y-17772429D01*
X5614524Y-17781952D01*
X5595476Y-17791476D01*
X5576429Y-17791476D01*
X5557381Y-17781952D01*
X5547857Y-17772429D01*
X5538333Y-17753381D01*
X5528810Y-17715286D01*
X5528810Y-17667667D01*
X5538333Y-17629571D01*
X5547857Y-17610524D01*
X5557381Y-17601000D01*
X5576429Y-17591476D01*
X5766905Y-17591476D02*
X5785952Y-17591476D01*
X5805000Y-17601000D01*
X5814524Y-17610524D01*
X5824048Y-17629571D01*
X5833571Y-17667667D01*
X5833571Y-17715286D01*
X5824048Y-17753381D01*
X5814524Y-17772429D01*
X5805000Y-17781952D01*
X5785952Y-17791476D01*
X5766905Y-17791476D01*
X5747857Y-17781952D01*
X5738333Y-17772429D01*
X5728809Y-17753381D01*
X5719286Y-17715286D01*
X5719286Y-17667667D01*
X5728809Y-17629571D01*
X5738333Y-17610524D01*
X5747857Y-17601000D01*
X5766905Y-17591476D01*
X5957381Y-17591476D02*
X5976428Y-17591476D01*
X5995476Y-17601000D01*
X6005000Y-17610524D01*
X6014524Y-17629571D01*
X6024048Y-17667667D01*
X6024048Y-17715286D01*
X6014524Y-17753381D01*
X6005000Y-17772429D01*
X5995476Y-17781952D01*
X5976428Y-17791476D01*
X5957381Y-17791476D01*
X5938333Y-17781952D01*
X5928809Y-17772429D01*
X5919286Y-17753381D01*
X5909762Y-17715286D01*
X5909762Y-17667667D01*
X5919286Y-17629571D01*
X5928809Y-17610524D01*
X5938333Y-17601000D01*
X5957381Y-17591476D01*
X6109762Y-17791476D02*
X6109762Y-17658143D01*
X6109762Y-17677190D02*
X6119286Y-17667667D01*
X6138333Y-17658143D01*
X6166905Y-17658143D01*
X6185952Y-17667667D01*
X6195476Y-17686714D01*
X6195476Y-17791476D01*
X6195476Y-17686714D02*
X6205000Y-17667667D01*
X6224048Y-17658143D01*
X6252619Y-17658143D01*
X6271667Y-17667667D01*
X6281190Y-17686714D01*
X6281190Y-17791476D01*
X6376428Y-17791476D02*
X6376428Y-17658143D01*
X6376428Y-17677190D02*
X6385952Y-17667667D01*
X6405000Y-17658143D01*
X6433571Y-17658143D01*
X6452619Y-17667667D01*
X6462143Y-17686714D01*
X6462143Y-17791476D01*
X6462143Y-17686714D02*
X6471667Y-17667667D01*
X6490714Y-17658143D01*
X6519286Y-17658143D01*
X6538333Y-17667667D01*
X6547857Y-17686714D01*
X6547857Y-17791476D01*
X6938333Y-17581952D02*
X6766905Y-17839095D01*
X7195476Y-17591476D02*
X7214524Y-17591476D01*
X7233571Y-17601000D01*
X7243095Y-17610524D01*
X7252619Y-17629571D01*
X7262143Y-17667667D01*
X7262143Y-17715286D01*
X7252619Y-17753381D01*
X7243095Y-17772429D01*
X7233571Y-17781952D01*
X7214524Y-17791476D01*
X7195476Y-17791476D01*
X7176428Y-17781952D01*
X7166905Y-17772429D01*
X7157381Y-17753381D01*
X7147857Y-17715286D01*
X7147857Y-17667667D01*
X7157381Y-17629571D01*
X7166905Y-17610524D01*
X7176428Y-17601000D01*
X7195476Y-17591476D01*
X7347857Y-17772429D02*
X7357381Y-17781952D01*
X7347857Y-17791476D01*
X7338333Y-17781952D01*
X7347857Y-17772429D01*
X7347857Y-17791476D01*
X7481190Y-17591476D02*
X7500238Y-17591476D01*
X7519286Y-17601000D01*
X7528809Y-17610524D01*
X7538333Y-17629571D01*
X7547857Y-17667667D01*
X7547857Y-17715286D01*
X7538333Y-17753381D01*
X7528809Y-17772429D01*
X7519286Y-17781952D01*
X7500238Y-17791476D01*
X7481190Y-17791476D01*
X7462143Y-17781952D01*
X7452619Y-17772429D01*
X7443095Y-17753381D01*
X7433571Y-17715286D01*
X7433571Y-17667667D01*
X7443095Y-17629571D01*
X7452619Y-17610524D01*
X7462143Y-17601000D01*
X7481190Y-17591476D01*
X7614524Y-17591476D02*
X7738333Y-17591476D01*
X7671667Y-17667667D01*
X7700238Y-17667667D01*
X7719286Y-17677190D01*
X7728809Y-17686714D01*
X7738333Y-17705762D01*
X7738333Y-17753381D01*
X7728809Y-17772429D01*
X7719286Y-17781952D01*
X7700238Y-17791476D01*
X7643095Y-17791476D01*
X7624048Y-17781952D01*
X7614524Y-17772429D01*
X7833571Y-17791476D02*
X7871667Y-17791476D01*
X7890714Y-17781952D01*
X7900238Y-17772429D01*
X7919286Y-17743857D01*
X7928809Y-17705762D01*
X7928809Y-17629571D01*
X7919286Y-17610524D01*
X7909762Y-17601000D01*
X7890714Y-17591476D01*
X7852619Y-17591476D01*
X7833571Y-17601000D01*
X7824048Y-17610524D01*
X7814524Y-17629571D01*
X7814524Y-17677190D01*
X7824048Y-17696238D01*
X7833571Y-17705762D01*
X7852619Y-17715286D01*
X7890714Y-17715286D01*
X7909762Y-17705762D01*
X7919286Y-17696238D01*
X7928809Y-17677190D01*
X8100238Y-17658143D02*
X8100238Y-17791476D01*
X8052619Y-17581952D02*
X8005000Y-17724810D01*
X8128809Y-17724810D01*
X8195476Y-17591476D02*
X8195476Y-17629571D01*
X8271667Y-17591476D02*
X8271667Y-17629571D01*
X8566905Y-17867667D02*
X8557381Y-17858143D01*
X8538333Y-17829571D01*
X8528810Y-17810524D01*
X8519286Y-17781952D01*
X8509762Y-17734333D01*
X8509762Y-17696238D01*
X8519286Y-17648619D01*
X8528810Y-17620048D01*
X8538333Y-17601000D01*
X8557381Y-17572429D01*
X8566905Y-17562905D01*
X8633571Y-17610524D02*
X8643095Y-17601000D01*
X8662143Y-17591476D01*
X8709762Y-17591476D01*
X8728810Y-17601000D01*
X8738333Y-17610524D01*
X8747857Y-17629571D01*
X8747857Y-17648619D01*
X8738333Y-17677190D01*
X8624048Y-17791476D01*
X8747857Y-17791476D01*
X8919286Y-17591476D02*
X8881190Y-17591476D01*
X8862143Y-17601000D01*
X8852619Y-17610524D01*
X8833571Y-17639095D01*
X8824048Y-17677190D01*
X8824048Y-17753381D01*
X8833571Y-17772429D01*
X8843095Y-17781952D01*
X8862143Y-17791476D01*
X8900238Y-17791476D01*
X8919286Y-17781952D01*
X8928810Y-17772429D01*
X8938333Y-17753381D01*
X8938333Y-17705762D01*
X8928810Y-17686714D01*
X8919286Y-17677190D01*
X8900238Y-17667667D01*
X8862143Y-17667667D01*
X8843095Y-17677190D01*
X8833571Y-17686714D01*
X8824048Y-17705762D01*
X9176429Y-17791476D02*
X9176429Y-17591476D01*
X9262143Y-17791476D02*
X9262143Y-17686714D01*
X9252619Y-17667667D01*
X9233571Y-17658143D01*
X9205000Y-17658143D01*
X9185952Y-17667667D01*
X9176429Y-17677190D01*
X9385952Y-17791476D02*
X9366905Y-17781952D01*
X9357381Y-17772429D01*
X9347857Y-17753381D01*
X9347857Y-17696238D01*
X9357381Y-17677190D01*
X9366905Y-17667667D01*
X9385952Y-17658143D01*
X9414524Y-17658143D01*
X9433571Y-17667667D01*
X9443095Y-17677190D01*
X9452619Y-17696238D01*
X9452619Y-17753381D01*
X9443095Y-17772429D01*
X9433571Y-17781952D01*
X9414524Y-17791476D01*
X9385952Y-17791476D01*
X9566905Y-17791476D02*
X9547857Y-17781952D01*
X9538333Y-17762905D01*
X9538333Y-17591476D01*
X9719286Y-17781952D02*
X9700238Y-17791476D01*
X9662143Y-17791476D01*
X9643095Y-17781952D01*
X9633571Y-17762905D01*
X9633571Y-17686714D01*
X9643095Y-17667667D01*
X9662143Y-17658143D01*
X9700238Y-17658143D01*
X9719286Y-17667667D01*
X9728810Y-17686714D01*
X9728810Y-17705762D01*
X9633571Y-17724810D01*
X9805000Y-17781952D02*
X9824048Y-17791476D01*
X9862143Y-17791476D01*
X9881190Y-17781952D01*
X9890714Y-17762905D01*
X9890714Y-17753381D01*
X9881190Y-17734333D01*
X9862143Y-17724810D01*
X9833571Y-17724810D01*
X9814524Y-17715286D01*
X9805000Y-17696238D01*
X9805000Y-17686714D01*
X9814524Y-17667667D01*
X9833571Y-17658143D01*
X9862143Y-17658143D01*
X9881190Y-17667667D01*
X9957381Y-17867667D02*
X9966905Y-17858143D01*
X9985952Y-17829571D01*
X9995476Y-17810524D01*
X10005000Y-17781952D01*
X10014524Y-17734333D01*
X10014524Y-17696238D01*
X10005000Y-17648619D01*
X9995476Y-17620048D01*
X9985952Y-17601000D01*
X9966905Y-17572429D01*
X9957381Y-17562905D01*
D17*
X4885000Y-17910000D02*
X4995000Y-18020000D01*
X4995000Y-17910000D02*
X4885000Y-18020000D01*
X4995000Y-17965000D02*
G75*
G03*
X4995000Y-17965000I-55000J0D01*
G01*
D11*
X5357381Y-18055476D02*
X5243095Y-18055476D01*
X5300238Y-18055476D02*
X5300238Y-17855476D01*
X5281190Y-17884048D01*
X5262143Y-17903095D01*
X5243095Y-17912619D01*
X5443095Y-18036429D02*
X5452619Y-18045952D01*
X5443095Y-18055476D01*
X5433571Y-18045952D01*
X5443095Y-18036429D01*
X5443095Y-18055476D01*
X5643095Y-18055476D02*
X5528810Y-18055476D01*
X5585952Y-18055476D02*
X5585952Y-17855476D01*
X5566905Y-17884048D01*
X5547857Y-17903095D01*
X5528810Y-17912619D01*
X5766905Y-17855476D02*
X5785952Y-17855476D01*
X5805000Y-17865000D01*
X5814524Y-17874524D01*
X5824048Y-17893571D01*
X5833571Y-17931667D01*
X5833571Y-17979286D01*
X5824048Y-18017381D01*
X5814524Y-18036429D01*
X5805000Y-18045952D01*
X5785952Y-18055476D01*
X5766905Y-18055476D01*
X5747857Y-18045952D01*
X5738333Y-18036429D01*
X5728809Y-18017381D01*
X5719286Y-17979286D01*
X5719286Y-17931667D01*
X5728809Y-17893571D01*
X5738333Y-17874524D01*
X5747857Y-17865000D01*
X5766905Y-17855476D01*
X5957381Y-17855476D02*
X5976428Y-17855476D01*
X5995476Y-17865000D01*
X6005000Y-17874524D01*
X6014524Y-17893571D01*
X6024048Y-17931667D01*
X6024048Y-17979286D01*
X6014524Y-18017381D01*
X6005000Y-18036429D01*
X5995476Y-18045952D01*
X5976428Y-18055476D01*
X5957381Y-18055476D01*
X5938333Y-18045952D01*
X5928809Y-18036429D01*
X5919286Y-18017381D01*
X5909762Y-17979286D01*
X5909762Y-17931667D01*
X5919286Y-17893571D01*
X5928809Y-17874524D01*
X5938333Y-17865000D01*
X5957381Y-17855476D01*
X6109762Y-18055476D02*
X6109762Y-17922143D01*
X6109762Y-17941190D02*
X6119286Y-17931667D01*
X6138333Y-17922143D01*
X6166905Y-17922143D01*
X6185952Y-17931667D01*
X6195476Y-17950714D01*
X6195476Y-18055476D01*
X6195476Y-17950714D02*
X6205000Y-17931667D01*
X6224048Y-17922143D01*
X6252619Y-17922143D01*
X6271667Y-17931667D01*
X6281190Y-17950714D01*
X6281190Y-18055476D01*
X6376428Y-18055476D02*
X6376428Y-17922143D01*
X6376428Y-17941190D02*
X6385952Y-17931667D01*
X6405000Y-17922143D01*
X6433571Y-17922143D01*
X6452619Y-17931667D01*
X6462143Y-17950714D01*
X6462143Y-18055476D01*
X6462143Y-17950714D02*
X6471667Y-17931667D01*
X6490714Y-17922143D01*
X6519286Y-17922143D01*
X6538333Y-17931667D01*
X6547857Y-17950714D01*
X6547857Y-18055476D01*
X6938333Y-17845952D02*
X6766905Y-18103095D01*
X7195476Y-17855476D02*
X7214524Y-17855476D01*
X7233571Y-17865000D01*
X7243095Y-17874524D01*
X7252619Y-17893571D01*
X7262143Y-17931667D01*
X7262143Y-17979286D01*
X7252619Y-18017381D01*
X7243095Y-18036429D01*
X7233571Y-18045952D01*
X7214524Y-18055476D01*
X7195476Y-18055476D01*
X7176428Y-18045952D01*
X7166905Y-18036429D01*
X7157381Y-18017381D01*
X7147857Y-17979286D01*
X7147857Y-17931667D01*
X7157381Y-17893571D01*
X7166905Y-17874524D01*
X7176428Y-17865000D01*
X7195476Y-17855476D01*
X7347857Y-18036429D02*
X7357381Y-18045952D01*
X7347857Y-18055476D01*
X7338333Y-18045952D01*
X7347857Y-18036429D01*
X7347857Y-18055476D01*
X7481190Y-17855476D02*
X7500238Y-17855476D01*
X7519286Y-17865000D01*
X7528809Y-17874524D01*
X7538333Y-17893571D01*
X7547857Y-17931667D01*
X7547857Y-17979286D01*
X7538333Y-18017381D01*
X7528809Y-18036429D01*
X7519286Y-18045952D01*
X7500238Y-18055476D01*
X7481190Y-18055476D01*
X7462143Y-18045952D01*
X7452619Y-18036429D01*
X7443095Y-18017381D01*
X7433571Y-17979286D01*
X7433571Y-17931667D01*
X7443095Y-17893571D01*
X7452619Y-17874524D01*
X7462143Y-17865000D01*
X7481190Y-17855476D01*
X7719286Y-17922143D02*
X7719286Y-18055476D01*
X7671667Y-17845952D02*
X7624048Y-17988810D01*
X7747857Y-17988810D01*
X7805000Y-17855476D02*
X7928809Y-17855476D01*
X7862143Y-17931667D01*
X7890714Y-17931667D01*
X7909762Y-17941190D01*
X7919286Y-17950714D01*
X7928809Y-17969762D01*
X7928809Y-18017381D01*
X7919286Y-18036429D01*
X7909762Y-18045952D01*
X7890714Y-18055476D01*
X7833571Y-18055476D01*
X7814524Y-18045952D01*
X7805000Y-18036429D01*
X7995476Y-17855476D02*
X8119286Y-17855476D01*
X8052619Y-17931667D01*
X8081190Y-17931667D01*
X8100238Y-17941190D01*
X8109762Y-17950714D01*
X8119286Y-17969762D01*
X8119286Y-18017381D01*
X8109762Y-18036429D01*
X8100238Y-18045952D01*
X8081190Y-18055476D01*
X8024048Y-18055476D01*
X8005000Y-18045952D01*
X7995476Y-18036429D01*
X8195476Y-17855476D02*
X8195476Y-17893571D01*
X8271667Y-17855476D02*
X8271667Y-17893571D01*
X8566905Y-18131667D02*
X8557381Y-18122143D01*
X8538333Y-18093571D01*
X8528810Y-18074524D01*
X8519286Y-18045952D01*
X8509762Y-17998333D01*
X8509762Y-17960238D01*
X8519286Y-17912619D01*
X8528810Y-17884048D01*
X8538333Y-17865000D01*
X8557381Y-17836429D01*
X8566905Y-17826905D01*
X8728810Y-17922143D02*
X8728810Y-18055476D01*
X8681190Y-17845952D02*
X8633571Y-17988810D01*
X8757381Y-17988810D01*
X8985952Y-18055476D02*
X8985952Y-17855476D01*
X9071667Y-18055476D02*
X9071667Y-17950714D01*
X9062143Y-17931667D01*
X9043095Y-17922143D01*
X9014524Y-17922143D01*
X8995476Y-17931667D01*
X8985952Y-17941190D01*
X9195476Y-18055476D02*
X9176429Y-18045952D01*
X9166905Y-18036429D01*
X9157381Y-18017381D01*
X9157381Y-17960238D01*
X9166905Y-17941190D01*
X9176429Y-17931667D01*
X9195476Y-17922143D01*
X9224048Y-17922143D01*
X9243095Y-17931667D01*
X9252619Y-17941190D01*
X9262143Y-17960238D01*
X9262143Y-18017381D01*
X9252619Y-18036429D01*
X9243095Y-18045952D01*
X9224048Y-18055476D01*
X9195476Y-18055476D01*
X9376429Y-18055476D02*
X9357381Y-18045952D01*
X9347857Y-18026905D01*
X9347857Y-17855476D01*
X9528810Y-18045952D02*
X9509762Y-18055476D01*
X9471667Y-18055476D01*
X9452619Y-18045952D01*
X9443095Y-18026905D01*
X9443095Y-17950714D01*
X9452619Y-17931667D01*
X9471667Y-17922143D01*
X9509762Y-17922143D01*
X9528810Y-17931667D01*
X9538333Y-17950714D01*
X9538333Y-17969762D01*
X9443095Y-17988810D01*
X9614524Y-18045952D02*
X9633571Y-18055476D01*
X9671667Y-18055476D01*
X9690714Y-18045952D01*
X9700238Y-18026905D01*
X9700238Y-18017381D01*
X9690714Y-17998333D01*
X9671667Y-17988810D01*
X9643095Y-17988810D01*
X9624048Y-17979286D01*
X9614524Y-17960238D01*
X9614524Y-17950714D01*
X9624048Y-17931667D01*
X9643095Y-17922143D01*
X9671667Y-17922143D01*
X9690714Y-17931667D01*
X9766905Y-18131667D02*
X9776429Y-18122143D01*
X9795476Y-18093571D01*
X9805000Y-18074524D01*
X9814524Y-18045952D01*
X9824048Y-17998333D01*
X9824048Y-17960238D01*
X9814524Y-17912619D01*
X9805000Y-17884048D01*
X9795476Y-17865000D01*
X9776429Y-17836429D01*
X9766905Y-17826905D01*
X4795000Y-18129000D02*
X4995000Y-18329000D01*
X4995000Y-18129000D02*
X4795000Y-18329000D01*
X4895000Y-18129000D02*
X4895000Y-18329000D01*
X4795000Y-18229000D02*
X4995000Y-18229000D01*
X5243095Y-18138524D02*
X5252619Y-18129000D01*
X5271667Y-18119476D01*
X5319286Y-18119476D01*
X5338333Y-18129000D01*
X5347857Y-18138524D01*
X5357381Y-18157571D01*
X5357381Y-18176619D01*
X5347857Y-18205190D01*
X5233571Y-18319476D01*
X5357381Y-18319476D01*
X5443095Y-18300429D02*
X5452619Y-18309952D01*
X5443095Y-18319476D01*
X5433571Y-18309952D01*
X5443095Y-18300429D01*
X5443095Y-18319476D01*
X5519286Y-18119476D02*
X5652619Y-18119476D01*
X5566905Y-18319476D01*
X5766905Y-18119476D02*
X5785952Y-18119476D01*
X5805000Y-18129000D01*
X5814524Y-18138524D01*
X5824048Y-18157571D01*
X5833571Y-18195667D01*
X5833571Y-18243286D01*
X5824048Y-18281381D01*
X5814524Y-18300429D01*
X5805000Y-18309952D01*
X5785952Y-18319476D01*
X5766905Y-18319476D01*
X5747857Y-18309952D01*
X5738333Y-18300429D01*
X5728809Y-18281381D01*
X5719286Y-18243286D01*
X5719286Y-18195667D01*
X5728809Y-18157571D01*
X5738333Y-18138524D01*
X5747857Y-18129000D01*
X5766905Y-18119476D01*
X5957381Y-18119476D02*
X5976428Y-18119476D01*
X5995476Y-18129000D01*
X6005000Y-18138524D01*
X6014524Y-18157571D01*
X6024048Y-18195667D01*
X6024048Y-18243286D01*
X6014524Y-18281381D01*
X6005000Y-18300429D01*
X5995476Y-18309952D01*
X5976428Y-18319476D01*
X5957381Y-18319476D01*
X5938333Y-18309952D01*
X5928809Y-18300429D01*
X5919286Y-18281381D01*
X5909762Y-18243286D01*
X5909762Y-18195667D01*
X5919286Y-18157571D01*
X5928809Y-18138524D01*
X5938333Y-18129000D01*
X5957381Y-18119476D01*
X6109762Y-18319476D02*
X6109762Y-18186143D01*
X6109762Y-18205190D02*
X6119286Y-18195667D01*
X6138333Y-18186143D01*
X6166905Y-18186143D01*
X6185952Y-18195667D01*
X6195476Y-18214714D01*
X6195476Y-18319476D01*
X6195476Y-18214714D02*
X6205000Y-18195667D01*
X6224048Y-18186143D01*
X6252619Y-18186143D01*
X6271667Y-18195667D01*
X6281190Y-18214714D01*
X6281190Y-18319476D01*
X6376428Y-18319476D02*
X6376428Y-18186143D01*
X6376428Y-18205190D02*
X6385952Y-18195667D01*
X6405000Y-18186143D01*
X6433571Y-18186143D01*
X6452619Y-18195667D01*
X6462143Y-18214714D01*
X6462143Y-18319476D01*
X6462143Y-18214714D02*
X6471667Y-18195667D01*
X6490714Y-18186143D01*
X6519286Y-18186143D01*
X6538333Y-18195667D01*
X6547857Y-18214714D01*
X6547857Y-18319476D01*
X6938333Y-18109952D02*
X6766905Y-18367095D01*
X7195476Y-18119476D02*
X7214524Y-18119476D01*
X7233571Y-18129000D01*
X7243095Y-18138524D01*
X7252619Y-18157571D01*
X7262143Y-18195667D01*
X7262143Y-18243286D01*
X7252619Y-18281381D01*
X7243095Y-18300429D01*
X7233571Y-18309952D01*
X7214524Y-18319476D01*
X7195476Y-18319476D01*
X7176428Y-18309952D01*
X7166905Y-18300429D01*
X7157381Y-18281381D01*
X7147857Y-18243286D01*
X7147857Y-18195667D01*
X7157381Y-18157571D01*
X7166905Y-18138524D01*
X7176428Y-18129000D01*
X7195476Y-18119476D01*
X7347857Y-18300429D02*
X7357381Y-18309952D01*
X7347857Y-18319476D01*
X7338333Y-18309952D01*
X7347857Y-18300429D01*
X7347857Y-18319476D01*
X7547857Y-18319476D02*
X7433571Y-18319476D01*
X7490714Y-18319476D02*
X7490714Y-18119476D01*
X7471667Y-18148048D01*
X7452619Y-18167095D01*
X7433571Y-18176619D01*
X7671667Y-18119476D02*
X7690714Y-18119476D01*
X7709762Y-18129000D01*
X7719286Y-18138524D01*
X7728809Y-18157571D01*
X7738333Y-18195667D01*
X7738333Y-18243286D01*
X7728809Y-18281381D01*
X7719286Y-18300429D01*
X7709762Y-18309952D01*
X7690714Y-18319476D01*
X7671667Y-18319476D01*
X7652619Y-18309952D01*
X7643095Y-18300429D01*
X7633571Y-18281381D01*
X7624048Y-18243286D01*
X7624048Y-18195667D01*
X7633571Y-18157571D01*
X7643095Y-18138524D01*
X7652619Y-18129000D01*
X7671667Y-18119476D01*
X7909762Y-18119476D02*
X7871667Y-18119476D01*
X7852619Y-18129000D01*
X7843095Y-18138524D01*
X7824048Y-18167095D01*
X7814524Y-18205190D01*
X7814524Y-18281381D01*
X7824048Y-18300429D01*
X7833571Y-18309952D01*
X7852619Y-18319476D01*
X7890714Y-18319476D01*
X7909762Y-18309952D01*
X7919286Y-18300429D01*
X7928809Y-18281381D01*
X7928809Y-18233762D01*
X7919286Y-18214714D01*
X7909762Y-18205190D01*
X7890714Y-18195667D01*
X7852619Y-18195667D01*
X7833571Y-18205190D01*
X7824048Y-18214714D01*
X7814524Y-18233762D01*
X7995476Y-18119476D02*
X8119286Y-18119476D01*
X8052619Y-18195667D01*
X8081190Y-18195667D01*
X8100238Y-18205190D01*
X8109762Y-18214714D01*
X8119286Y-18233762D01*
X8119286Y-18281381D01*
X8109762Y-18300429D01*
X8100238Y-18309952D01*
X8081190Y-18319476D01*
X8024048Y-18319476D01*
X8005000Y-18309952D01*
X7995476Y-18300429D01*
X8195476Y-18119476D02*
X8195476Y-18157571D01*
X8271667Y-18119476D02*
X8271667Y-18157571D01*
X8566905Y-18395667D02*
X8557381Y-18386143D01*
X8538333Y-18357571D01*
X8528810Y-18338524D01*
X8519286Y-18309952D01*
X8509762Y-18262333D01*
X8509762Y-18224238D01*
X8519286Y-18176619D01*
X8528810Y-18148048D01*
X8538333Y-18129000D01*
X8557381Y-18100429D01*
X8566905Y-18090905D01*
X8747857Y-18319476D02*
X8633571Y-18319476D01*
X8690714Y-18319476D02*
X8690714Y-18119476D01*
X8671667Y-18148048D01*
X8652619Y-18167095D01*
X8633571Y-18176619D01*
X8928810Y-18119476D02*
X8833571Y-18119476D01*
X8824048Y-18214714D01*
X8833571Y-18205190D01*
X8852619Y-18195667D01*
X8900238Y-18195667D01*
X8919286Y-18205190D01*
X8928810Y-18214714D01*
X8938333Y-18233762D01*
X8938333Y-18281381D01*
X8928810Y-18300429D01*
X8919286Y-18309952D01*
X8900238Y-18319476D01*
X8852619Y-18319476D01*
X8833571Y-18309952D01*
X8824048Y-18300429D01*
X9176429Y-18319476D02*
X9176429Y-18119476D01*
X9262143Y-18319476D02*
X9262143Y-18214714D01*
X9252619Y-18195667D01*
X9233571Y-18186143D01*
X9205000Y-18186143D01*
X9185952Y-18195667D01*
X9176429Y-18205190D01*
X9385952Y-18319476D02*
X9366905Y-18309952D01*
X9357381Y-18300429D01*
X9347857Y-18281381D01*
X9347857Y-18224238D01*
X9357381Y-18205190D01*
X9366905Y-18195667D01*
X9385952Y-18186143D01*
X9414524Y-18186143D01*
X9433571Y-18195667D01*
X9443095Y-18205190D01*
X9452619Y-18224238D01*
X9452619Y-18281381D01*
X9443095Y-18300429D01*
X9433571Y-18309952D01*
X9414524Y-18319476D01*
X9385952Y-18319476D01*
X9566905Y-18319476D02*
X9547857Y-18309952D01*
X9538333Y-18290905D01*
X9538333Y-18119476D01*
X9719286Y-18309952D02*
X9700238Y-18319476D01*
X9662143Y-18319476D01*
X9643095Y-18309952D01*
X9633571Y-18290905D01*
X9633571Y-18214714D01*
X9643095Y-18195667D01*
X9662143Y-18186143D01*
X9700238Y-18186143D01*
X9719286Y-18195667D01*
X9728810Y-18214714D01*
X9728810Y-18233762D01*
X9633571Y-18252810D01*
X9805000Y-18309952D02*
X9824048Y-18319476D01*
X9862143Y-18319476D01*
X9881190Y-18309952D01*
X9890714Y-18290905D01*
X9890714Y-18281381D01*
X9881190Y-18262333D01*
X9862143Y-18252810D01*
X9833571Y-18252810D01*
X9814524Y-18243286D01*
X9805000Y-18224238D01*
X9805000Y-18214714D01*
X9814524Y-18195667D01*
X9833571Y-18186143D01*
X9862143Y-18186143D01*
X9881190Y-18195667D01*
X9957381Y-18395667D02*
X9966905Y-18386143D01*
X9985952Y-18357571D01*
X9995476Y-18338524D01*
X10005000Y-18309952D01*
X10014524Y-18262333D01*
X10014524Y-18224238D01*
X10005000Y-18176619D01*
X9995476Y-18148048D01*
X9985952Y-18129000D01*
X9966905Y-18100429D01*
X9957381Y-18090905D01*
M02*
