G04 #@! TF.GenerationSoftware,KiCad,Pcbnew,(6.0.1)*
G04 #@! TF.CreationDate,2023-06-21T18:57:46+02:00*
G04 #@! TF.ProjectId,output,6f757470-7574-42e6-9b69-6361645f7063,rev?*
G04 #@! TF.SameCoordinates,Original*
G04 #@! TF.FileFunction,Soldermask,Top*
G04 #@! TF.FilePolarity,Negative*
%FSLAX46Y46*%
G04 Gerber Fmt 4.6, Leading zero omitted, Abs format (unit mm)*
G04 Created by KiCad (PCBNEW (6.0.1)) date 2023-06-21 18:57:46*
%MOMM*%
%LPD*%
G01*
G04 APERTURE LIST*
G04 Aperture macros list*
%AMRoundRect*
0 Rectangle with rounded corners*
0 $1 Rounding radius*
0 $2 $3 $4 $5 $6 $7 $8 $9 X,Y pos of 4 corners*
0 Add a 4 corners polygon primitive as box body*
4,1,4,$2,$3,$4,$5,$6,$7,$8,$9,$2,$3,0*
0 Add four circle primitives for the rounded corners*
1,1,$1+$1,$2,$3*
1,1,$1+$1,$4,$5*
1,1,$1+$1,$6,$7*
1,1,$1+$1,$8,$9*
0 Add four rect primitives between the rounded corners*
20,1,$1+$1,$2,$3,$4,$5,0*
20,1,$1+$1,$4,$5,$6,$7,0*
20,1,$1+$1,$6,$7,$8,$9,0*
20,1,$1+$1,$8,$9,$2,$3,0*%
%AMHorizOval*
0 Thick line with rounded ends*
0 $1 width*
0 $2 $3 position (X,Y) of the first rounded end (center of the circle)*
0 $4 $5 position (X,Y) of the second rounded end (center of the circle)*
0 Add line between two ends*
20,1,$1,$2,$3,$4,$5,0*
0 Add two circle primitives to create the rounded ends*
1,1,$1,$2,$3*
1,1,$1,$4,$5*%
G04 Aperture macros list end*
%ADD10R,3.000000X6.000000*%
%ADD11R,1.700000X1.700000*%
%ADD12O,1.700000X1.700000*%
%ADD13C,4.500001*%
%ADD14R,4.500001X4.500001*%
%ADD15C,4.500000*%
%ADD16C,1.600000*%
%ADD17R,2.200000X2.200000*%
%ADD18O,2.200000X2.200000*%
%ADD19RoundRect,0.250000X-0.600000X-0.600000X0.600000X-0.600000X0.600000X0.600000X-0.600000X0.600000X0*%
%ADD20C,1.700000*%
%ADD21C,1.400000*%
%ADD22O,1.400000X1.400000*%
%ADD23R,1.600000X1.600000*%
%ADD24O,1.600000X1.600000*%
%ADD25HorizOval,1.400000X0.000000X0.000000X0.000000X0.000000X0*%
%ADD26R,1.200000X1.200000*%
%ADD27C,1.200000*%
G04 APERTURE END LIST*
D10*
X86550000Y-108000000D03*
X53500000Y-101300000D03*
D11*
X52250000Y-94050000D03*
D12*
X54790000Y-94050000D03*
D13*
X60250000Y-142600000D03*
X66150000Y-146500000D03*
D14*
X64490000Y-153740000D03*
D15*
X53350000Y-149500000D03*
X57250000Y-155400000D03*
D13*
X60250000Y-117450000D03*
X66150000Y-121350000D03*
D14*
X64490000Y-128590000D03*
D15*
X53350000Y-124350000D03*
X57250000Y-130250000D03*
D10*
X86550000Y-100200000D03*
D16*
X72644000Y-65020000D03*
X72644000Y-60020000D03*
D13*
X81050000Y-117450000D03*
X86950000Y-121350000D03*
D14*
X85290000Y-128590000D03*
D15*
X74150000Y-124350000D03*
X78050000Y-130250000D03*
D11*
X87650000Y-92900000D03*
D12*
X85110000Y-92900000D03*
D11*
X87415000Y-54550000D03*
D12*
X84875000Y-54550000D03*
X87415000Y-57090000D03*
X84875000Y-57090000D03*
X87415000Y-59630000D03*
X84875000Y-59630000D03*
D10*
X53500000Y-109200000D03*
D11*
X81525000Y-154360000D03*
D12*
X81525000Y-156900000D03*
X84065000Y-154360000D03*
X84065000Y-156900000D03*
X86605000Y-154360000D03*
X86605000Y-156900000D03*
D16*
X82410000Y-69620000D03*
X82410000Y-64620000D03*
D17*
X57850000Y-84080000D03*
D18*
X57850000Y-73920000D03*
D19*
X54397500Y-66330000D03*
D20*
X56937500Y-66330000D03*
X54397500Y-63790000D03*
X56937500Y-63790000D03*
X54397500Y-61250000D03*
X56937500Y-61250000D03*
X54397500Y-58710000D03*
X56937500Y-58710000D03*
X54397500Y-56170000D03*
X56937500Y-56170000D03*
D21*
X57740000Y-105300000D03*
D22*
X57740000Y-112920000D03*
D21*
X67840000Y-107475000D03*
D22*
X75460000Y-107475000D03*
D23*
X75250000Y-96400000D03*
D24*
X75250000Y-98940000D03*
X75250000Y-101480000D03*
X75250000Y-104020000D03*
X67630000Y-104020000D03*
X67630000Y-101480000D03*
X67630000Y-98940000D03*
X67630000Y-96400000D03*
D16*
X85852000Y-146772000D03*
X85852000Y-141772000D03*
D21*
X81410000Y-110400000D03*
D22*
X73790000Y-110400000D03*
D21*
X80120000Y-135880000D03*
D22*
X87740000Y-135880000D03*
D16*
X79280000Y-90440000D03*
X79280000Y-85440000D03*
D23*
X74686000Y-138948000D03*
D24*
X77226000Y-138948000D03*
X79766000Y-138948000D03*
X82306000Y-138948000D03*
X82306000Y-146568000D03*
X79766000Y-146568000D03*
X77226000Y-146568000D03*
X74686000Y-146568000D03*
D21*
X73815000Y-113175000D03*
D22*
X81435000Y-113175000D03*
D21*
X81910000Y-78250000D03*
D22*
X74290000Y-78250000D03*
D16*
X86460000Y-75245000D03*
X81460000Y-75245000D03*
D17*
X52575000Y-73920000D03*
D18*
X52575000Y-84080000D03*
D23*
X75475000Y-82175000D03*
D24*
X75475000Y-84715000D03*
X75475000Y-87255000D03*
X75475000Y-89795000D03*
X67855000Y-89795000D03*
X67855000Y-87255000D03*
X67855000Y-84715000D03*
X67855000Y-82175000D03*
D21*
X87675000Y-64640000D03*
D22*
X87675000Y-72260000D03*
D23*
X52519888Y-136350000D03*
D16*
X54519888Y-136350000D03*
X63250000Y-67300000D03*
X63250000Y-62300000D03*
X62875000Y-74900000D03*
X62875000Y-69900000D03*
D21*
X68810000Y-113190000D03*
D22*
X61190000Y-113190000D03*
D21*
X62750000Y-85835000D03*
D22*
X62750000Y-78215000D03*
D21*
X65160000Y-51690000D03*
D22*
X65160000Y-59310000D03*
D21*
X70525000Y-153860000D03*
D22*
X70525000Y-146240000D03*
D21*
X70612000Y-135890000D03*
D22*
X70612000Y-143510000D03*
D21*
X75340000Y-93510000D03*
D22*
X67720000Y-93510000D03*
D16*
X71060000Y-52295000D03*
X76060000Y-52295000D03*
D21*
X88175000Y-89610000D03*
D22*
X88175000Y-81990000D03*
D21*
X78010000Y-156950000D03*
D22*
X70390000Y-156950000D03*
D21*
X79010000Y-62805000D03*
D22*
X79010000Y-55185000D03*
D16*
X71060000Y-55995000D03*
X76060000Y-55995000D03*
D21*
X68720000Y-110650000D03*
D22*
X61100000Y-110650000D03*
D21*
X62350000Y-59310000D03*
D22*
X62350000Y-51690000D03*
D16*
X60980000Y-103120000D03*
X60980000Y-108120000D03*
D21*
X58530923Y-93669077D03*
D25*
X63919077Y-88280923D03*
D23*
X62144888Y-136250000D03*
D16*
X64144888Y-136250000D03*
X64300000Y-101400000D03*
X64300000Y-106400000D03*
X66890000Y-78440000D03*
X71890000Y-78440000D03*
X81525000Y-150175000D03*
X86525000Y-150175000D03*
D23*
X75760000Y-59645000D03*
D24*
X75760000Y-62185000D03*
X75760000Y-64725000D03*
X75760000Y-67265000D03*
X75760000Y-69805000D03*
X75760000Y-72345000D03*
X75760000Y-74885000D03*
X68140000Y-74885000D03*
X68140000Y-72345000D03*
X68140000Y-69805000D03*
X68140000Y-67265000D03*
X68140000Y-64725000D03*
X68140000Y-62185000D03*
X68140000Y-59645000D03*
D26*
X57350000Y-87777401D03*
D27*
X57350000Y-89777401D03*
D26*
X53622600Y-88550000D03*
D27*
X51622600Y-88550000D03*
D21*
X79250000Y-107470000D03*
D22*
X79250000Y-99850000D03*
D16*
X79035000Y-67220000D03*
X79035000Y-72220000D03*
X64300000Y-98975000D03*
X64300000Y-93975000D03*
X78825000Y-150175000D03*
X73825000Y-150175000D03*
M02*
