G04 #@! TF.GenerationSoftware,KiCad,Pcbnew,(6.0.1)*
G04 #@! TF.CreationDate,2023-06-21T18:57:46+02:00*
G04 #@! TF.ProjectId,output,6f757470-7574-42e6-9b69-6361645f7063,rev?*
G04 #@! TF.SameCoordinates,Original*
G04 #@! TF.FileFunction,Legend,Top*
G04 #@! TF.FilePolarity,Positive*
%FSLAX46Y46*%
G04 Gerber Fmt 4.6, Leading zero omitted, Abs format (unit mm)*
G04 Created by KiCad (PCBNEW (6.0.1)) date 2023-06-21 18:57:46*
%MOMM*%
%LPD*%
G01*
G04 APERTURE LIST*
%ADD10C,0.150000*%
%ADD11C,0.120000*%
G04 APERTURE END LIST*
D10*
X86216666Y-103642380D02*
X86216666Y-104356666D01*
X86169047Y-104499523D01*
X86073809Y-104594761D01*
X85930952Y-104642380D01*
X85835714Y-104642380D01*
X86597619Y-103642380D02*
X87264285Y-103642380D01*
X86835714Y-104642380D01*
X52690476Y-96942380D02*
X52690476Y-97656666D01*
X52642857Y-97799523D01*
X52547619Y-97894761D01*
X52404761Y-97942380D01*
X52309523Y-97942380D01*
X53690476Y-97942380D02*
X53119047Y-97942380D01*
X53404761Y-97942380D02*
X53404761Y-96942380D01*
X53309523Y-97085238D01*
X53214285Y-97180476D01*
X53119047Y-97228095D01*
X54309523Y-96942380D02*
X54404761Y-96942380D01*
X54500000Y-96990000D01*
X54547619Y-97037619D01*
X54595238Y-97132857D01*
X54642857Y-97323333D01*
X54642857Y-97561428D01*
X54595238Y-97751904D01*
X54547619Y-97847142D01*
X54500000Y-97894761D01*
X54404761Y-97942380D01*
X54309523Y-97942380D01*
X54214285Y-97894761D01*
X54166666Y-97847142D01*
X54119047Y-97751904D01*
X54071428Y-97561428D01*
X54071428Y-97323333D01*
X54119047Y-97132857D01*
X54166666Y-97037619D01*
X54214285Y-96990000D01*
X54309523Y-96942380D01*
X50956666Y-91142380D02*
X50956666Y-91856666D01*
X50909047Y-91999523D01*
X50813809Y-92094761D01*
X50670952Y-92142380D01*
X50575714Y-92142380D01*
X51385238Y-91237619D02*
X51432857Y-91190000D01*
X51528095Y-91142380D01*
X51766190Y-91142380D01*
X51861428Y-91190000D01*
X51909047Y-91237619D01*
X51956666Y-91332857D01*
X51956666Y-91428095D01*
X51909047Y-91570952D01*
X51337619Y-92142380D01*
X51956666Y-92142380D01*
X59500000Y-139089285D02*
X59500000Y-139625000D01*
X59464285Y-139732142D01*
X59392857Y-139803571D01*
X59285714Y-139839285D01*
X59214285Y-139839285D01*
X60178571Y-139339285D02*
X60178571Y-139839285D01*
X60000000Y-139053571D02*
X59821428Y-139589285D01*
X60285714Y-139589285D01*
X66000000Y-114949285D02*
X66000000Y-115485000D01*
X65964285Y-115592142D01*
X65892857Y-115663571D01*
X65785714Y-115699285D01*
X65714285Y-115699285D01*
X66285714Y-114949285D02*
X66750000Y-114949285D01*
X66500000Y-115235000D01*
X66607142Y-115235000D01*
X66678571Y-115270714D01*
X66714285Y-115306428D01*
X66750000Y-115377857D01*
X66750000Y-115556428D01*
X66714285Y-115627857D01*
X66678571Y-115663571D01*
X66607142Y-115699285D01*
X66392857Y-115699285D01*
X66321428Y-115663571D01*
X66285714Y-115627857D01*
X86216666Y-95842380D02*
X86216666Y-96556666D01*
X86169047Y-96699523D01*
X86073809Y-96794761D01*
X85930952Y-96842380D01*
X85835714Y-96842380D01*
X86835714Y-96270952D02*
X86740476Y-96223333D01*
X86692857Y-96175714D01*
X86645238Y-96080476D01*
X86645238Y-96032857D01*
X86692857Y-95937619D01*
X86740476Y-95890000D01*
X86835714Y-95842380D01*
X87026190Y-95842380D01*
X87121428Y-95890000D01*
X87169047Y-95937619D01*
X87216666Y-96032857D01*
X87216666Y-96080476D01*
X87169047Y-96175714D01*
X87121428Y-96223333D01*
X87026190Y-96270952D01*
X86835714Y-96270952D01*
X86740476Y-96318571D01*
X86692857Y-96366190D01*
X86645238Y-96461428D01*
X86645238Y-96651904D01*
X86692857Y-96747142D01*
X86740476Y-96794761D01*
X86835714Y-96842380D01*
X87026190Y-96842380D01*
X87121428Y-96794761D01*
X87169047Y-96747142D01*
X87216666Y-96651904D01*
X87216666Y-96461428D01*
X87169047Y-96366190D01*
X87121428Y-96318571D01*
X87026190Y-96270952D01*
X70501142Y-62686666D02*
X70548761Y-62734285D01*
X70596380Y-62877142D01*
X70596380Y-62972380D01*
X70548761Y-63115238D01*
X70453523Y-63210476D01*
X70358285Y-63258095D01*
X70167809Y-63305714D01*
X70024952Y-63305714D01*
X69834476Y-63258095D01*
X69739238Y-63210476D01*
X69644000Y-63115238D01*
X69596380Y-62972380D01*
X69596380Y-62877142D01*
X69644000Y-62734285D01*
X69691619Y-62686666D01*
X69596380Y-61829523D02*
X69596380Y-62020000D01*
X69644000Y-62115238D01*
X69691619Y-62162857D01*
X69834476Y-62258095D01*
X70024952Y-62305714D01*
X70405904Y-62305714D01*
X70501142Y-62258095D01*
X70548761Y-62210476D01*
X70596380Y-62115238D01*
X70596380Y-61924761D01*
X70548761Y-61829523D01*
X70501142Y-61781904D01*
X70405904Y-61734285D01*
X70167809Y-61734285D01*
X70072571Y-61781904D01*
X70024952Y-61829523D01*
X69977333Y-61924761D01*
X69977333Y-62115238D01*
X70024952Y-62210476D01*
X70072571Y-62258095D01*
X70167809Y-62305714D01*
X86100000Y-114639285D02*
X86100000Y-115175000D01*
X86064285Y-115282142D01*
X85992857Y-115353571D01*
X85885714Y-115389285D01*
X85814285Y-115389285D01*
X86814285Y-114639285D02*
X86457142Y-114639285D01*
X86421428Y-114996428D01*
X86457142Y-114960714D01*
X86528571Y-114925000D01*
X86707142Y-114925000D01*
X86778571Y-114960714D01*
X86814285Y-114996428D01*
X86850000Y-115067857D01*
X86850000Y-115246428D01*
X86814285Y-115317857D01*
X86778571Y-115353571D01*
X86707142Y-115389285D01*
X86528571Y-115389285D01*
X86457142Y-115353571D01*
X86421428Y-115317857D01*
X83546666Y-89732380D02*
X83546666Y-90446666D01*
X83499047Y-90589523D01*
X83403809Y-90684761D01*
X83260952Y-90732380D01*
X83165714Y-90732380D01*
X84546666Y-90732380D02*
X83975238Y-90732380D01*
X84260952Y-90732380D02*
X84260952Y-89732380D01*
X84165714Y-89875238D01*
X84070476Y-89970476D01*
X83975238Y-90018095D01*
X85549761Y-52232380D02*
X85216428Y-51756190D01*
X84978333Y-52232380D02*
X84978333Y-51232380D01*
X85359285Y-51232380D01*
X85454523Y-51280000D01*
X85502142Y-51327619D01*
X85549761Y-51422857D01*
X85549761Y-51565714D01*
X85502142Y-51660952D01*
X85454523Y-51708571D01*
X85359285Y-51756190D01*
X84978333Y-51756190D01*
X85835476Y-51232380D02*
X86168809Y-52232380D01*
X86502142Y-51232380D01*
X87359285Y-52232380D02*
X86787857Y-52232380D01*
X87073571Y-52232380D02*
X87073571Y-51232380D01*
X86978333Y-51375238D01*
X86883095Y-51470476D01*
X86787857Y-51518095D01*
X53166666Y-104842380D02*
X53166666Y-105556666D01*
X53119047Y-105699523D01*
X53023809Y-105794761D01*
X52880952Y-105842380D01*
X52785714Y-105842380D01*
X53690476Y-105842380D02*
X53880952Y-105842380D01*
X53976190Y-105794761D01*
X54023809Y-105747142D01*
X54119047Y-105604285D01*
X54166666Y-105413809D01*
X54166666Y-105032857D01*
X54119047Y-104937619D01*
X54071428Y-104890000D01*
X53976190Y-104842380D01*
X53785714Y-104842380D01*
X53690476Y-104890000D01*
X53642857Y-104937619D01*
X53595238Y-105032857D01*
X53595238Y-105270952D01*
X53642857Y-105366190D01*
X53690476Y-105413809D01*
X53785714Y-105461428D01*
X53976190Y-105461428D01*
X54071428Y-105413809D01*
X54119047Y-105366190D01*
X54166666Y-105270952D01*
X79052380Y-154385238D02*
X78576190Y-154718571D01*
X79052380Y-154956666D02*
X78052380Y-154956666D01*
X78052380Y-154575714D01*
X78100000Y-154480476D01*
X78147619Y-154432857D01*
X78242857Y-154385238D01*
X78385714Y-154385238D01*
X78480952Y-154432857D01*
X78528571Y-154480476D01*
X78576190Y-154575714D01*
X78576190Y-154956666D01*
X78052380Y-154099523D02*
X79052380Y-153766190D01*
X78052380Y-153432857D01*
X78147619Y-153147142D02*
X78100000Y-153099523D01*
X78052380Y-153004285D01*
X78052380Y-152766190D01*
X78100000Y-152670952D01*
X78147619Y-152623333D01*
X78242857Y-152575714D01*
X78338095Y-152575714D01*
X78480952Y-152623333D01*
X79052380Y-153194761D01*
X79052380Y-152575714D01*
D11*
X50920000Y-92720000D02*
X52250000Y-92720000D01*
X53520000Y-95380000D02*
X56120000Y-95380000D01*
X50920000Y-94050000D02*
X50920000Y-92720000D01*
X53520000Y-95380000D02*
X53520000Y-92720000D01*
X53520000Y-92720000D02*
X56120000Y-92720000D01*
X56120000Y-95380000D02*
X56120000Y-92720000D01*
X67600000Y-154850000D02*
X66860000Y-155440000D01*
X67600000Y-141100000D02*
X67600000Y-144300000D01*
X66040000Y-156090000D02*
X65100000Y-156850000D01*
X51850000Y-141100000D02*
X58250000Y-141100000D01*
X55250000Y-156850000D02*
X51850000Y-156850000D01*
X51850000Y-156850000D02*
X51850000Y-151500000D01*
X67600000Y-148600000D02*
X67600000Y-154800000D01*
X51850000Y-147500000D02*
X51850000Y-141100000D01*
X65100000Y-156850000D02*
X59250000Y-156850000D01*
X62250000Y-141100000D02*
X67600000Y-141100000D01*
X67600000Y-154800000D02*
X67600000Y-154850000D01*
X66040000Y-130940000D02*
X65100000Y-131700000D01*
X67600000Y-123450000D02*
X67600000Y-129650000D01*
X62250000Y-115950000D02*
X67600000Y-115950000D01*
X67600000Y-129700000D02*
X66860000Y-130290000D01*
X67600000Y-115950000D02*
X67600000Y-119150000D01*
X65100000Y-131700000D02*
X59250000Y-131700000D01*
X51850000Y-131700000D02*
X51850000Y-126350000D01*
X51850000Y-115950000D02*
X58250000Y-115950000D01*
X51850000Y-122350000D02*
X51850000Y-115950000D01*
X67600000Y-129650000D02*
X67600000Y-129700000D01*
X55250000Y-131700000D02*
X51850000Y-131700000D01*
X73699000Y-65140000D02*
X74014000Y-65140000D01*
X71274000Y-59900000D02*
X71589000Y-59900000D01*
X71274000Y-65140000D02*
X71589000Y-65140000D01*
X71274000Y-65140000D02*
X71274000Y-59900000D01*
X73699000Y-59900000D02*
X74014000Y-59900000D01*
X74014000Y-65140000D02*
X74014000Y-59900000D01*
X72650000Y-115950000D02*
X79050000Y-115950000D01*
X83050000Y-115950000D02*
X88400000Y-115950000D01*
X72650000Y-122350000D02*
X72650000Y-115950000D01*
X88400000Y-115950000D02*
X88400000Y-119150000D01*
X88400000Y-123450000D02*
X88400000Y-129650000D01*
X86840000Y-130940000D02*
X85900000Y-131700000D01*
X72650000Y-131700000D02*
X72650000Y-126350000D01*
X85900000Y-131700000D02*
X80050000Y-131700000D01*
X88400000Y-129700000D02*
X87660000Y-130290000D01*
X76050000Y-131700000D02*
X72650000Y-131700000D01*
X88400000Y-129650000D02*
X88400000Y-129700000D01*
X86380000Y-91570000D02*
X86380000Y-94230000D01*
X86380000Y-91570000D02*
X83780000Y-91570000D01*
X86380000Y-94230000D02*
X83780000Y-94230000D01*
X83780000Y-91570000D02*
X83780000Y-94230000D01*
X88980000Y-94230000D02*
X87650000Y-94230000D01*
X88980000Y-92900000D02*
X88980000Y-94230000D01*
X86145000Y-53220000D02*
X86145000Y-55820000D01*
X88745000Y-53220000D02*
X88745000Y-54550000D01*
X83545000Y-53220000D02*
X86145000Y-53220000D01*
X88745000Y-55820000D02*
X88745000Y-60960000D01*
X86145000Y-55820000D02*
X88745000Y-55820000D01*
X83545000Y-53220000D02*
X83545000Y-60960000D01*
X83545000Y-60960000D02*
X88745000Y-60960000D01*
X87415000Y-53220000D02*
X88745000Y-53220000D01*
X80195000Y-158230000D02*
X80195000Y-155630000D01*
X80195000Y-155630000D02*
X82795000Y-155630000D01*
X82795000Y-153030000D02*
X87935000Y-153030000D01*
X80195000Y-158230000D02*
X87935000Y-158230000D01*
X87935000Y-158230000D02*
X87935000Y-153030000D01*
X82795000Y-155630000D02*
X82795000Y-153030000D01*
X80195000Y-154360000D02*
X80195000Y-153030000D01*
X80195000Y-153030000D02*
X81525000Y-153030000D01*
M02*
