%FSLAX45Y45*%
G04 Gerber Fmt 4.5, Leading zero omitted, Abs format (unit mm)*
G04 Created by KiCad (PCBNEW (6.0.1)) date 2023-06-21 18:57:53*
%MOMM*%
%LPD*%
G01*
G04 APERTURE LIST*
%TA.AperFunction,Profile*%
%ADD10C,0.100000*%
%TD*%
%ADD11C,0.200000*%
G04 APERTURE END LIST*
D10*
X9030000Y-5000000D02*
X9030000Y-16000000D01*
X5000000Y-16000000D02*
X5000000Y-5000000D01*
X5000000Y-5000000D02*
X9030000Y-5000000D01*
X9030000Y-16000000D02*
X5000000Y-16000000D01*
D11*
X5252619Y-16315476D02*
X5252619Y-16115476D01*
X5300238Y-16115476D01*
X5328810Y-16125000D01*
X5347857Y-16144048D01*
X5357381Y-16163095D01*
X5366905Y-16201190D01*
X5366905Y-16229762D01*
X5357381Y-16267857D01*
X5347857Y-16286905D01*
X5328810Y-16305952D01*
X5300238Y-16315476D01*
X5252619Y-16315476D01*
X5452619Y-16315476D02*
X5452619Y-16182143D01*
X5452619Y-16220238D02*
X5462143Y-16201190D01*
X5471667Y-16191667D01*
X5490714Y-16182143D01*
X5509762Y-16182143D01*
X5576429Y-16315476D02*
X5576429Y-16182143D01*
X5576429Y-16115476D02*
X5566905Y-16125000D01*
X5576429Y-16134524D01*
X5585952Y-16125000D01*
X5576429Y-16115476D01*
X5576429Y-16134524D01*
X5700238Y-16315476D02*
X5681190Y-16305952D01*
X5671667Y-16286905D01*
X5671667Y-16115476D01*
X5805000Y-16315476D02*
X5785952Y-16305952D01*
X5776428Y-16286905D01*
X5776428Y-16115476D01*
X6033571Y-16315476D02*
X6033571Y-16115476D01*
X6100238Y-16258333D01*
X6166905Y-16115476D01*
X6166905Y-16315476D01*
X6347857Y-16315476D02*
X6347857Y-16210714D01*
X6338333Y-16191667D01*
X6319286Y-16182143D01*
X6281190Y-16182143D01*
X6262143Y-16191667D01*
X6347857Y-16305952D02*
X6328809Y-16315476D01*
X6281190Y-16315476D01*
X6262143Y-16305952D01*
X6252619Y-16286905D01*
X6252619Y-16267857D01*
X6262143Y-16248809D01*
X6281190Y-16239286D01*
X6328809Y-16239286D01*
X6347857Y-16229762D01*
X6443095Y-16182143D02*
X6443095Y-16382143D01*
X6443095Y-16191667D02*
X6462143Y-16182143D01*
X6500238Y-16182143D01*
X6519286Y-16191667D01*
X6528809Y-16201190D01*
X6538333Y-16220238D01*
X6538333Y-16277381D01*
X6528809Y-16296428D01*
X6519286Y-16305952D01*
X6500238Y-16315476D01*
X6462143Y-16315476D01*
X6443095Y-16305952D01*
X6624048Y-16296428D02*
X6633571Y-16305952D01*
X6624048Y-16315476D01*
X6614524Y-16305952D01*
X6624048Y-16296428D01*
X6624048Y-16315476D01*
X6624048Y-16191667D02*
X6633571Y-16201190D01*
X6624048Y-16210714D01*
X6614524Y-16201190D01*
X6624048Y-16191667D01*
X6624048Y-16210714D01*
M02*
