M48
; DRILL file {KiCad (6.0.1)} date Wed Jun 21 18:57:53 2023
; FORMAT={-:-/ absolute / metric / decimal}
; #@! TF.CreationDate,2023-06-21T18:57:53+02:00
; #@! TF.GenerationSoftware,Kicad,Pcbnew,(6.0.1)
; #@! TF.FileFunction,Plated,1,2,PTH
FMAT,2
METRIC
; #@! TA.AperFunction,Plated,PTH,ViaDrill
T1C0.400
; #@! TA.AperFunction,Plated,PTH,ComponentDrill
T2C0.600
; #@! TA.AperFunction,Plated,PTH,ComponentDrill
T3C0.700
; #@! TA.AperFunction,Plated,PTH,ComponentDrill
T4C0.800
; #@! TA.AperFunction,Plated,PTH,ComponentDrill
T5C1.000
; #@! TA.AperFunction,Plated,PTH,ComponentDrill
T6C1.100
; #@! TA.AperFunction,Plated,PTH,ComponentDrill
T7C2.700
%
G90
G05
T1
X58.54Y-91.79
X60.26Y-147.88
X60.35Y-90.37
X63.246Y-72.644
X64.95Y-74.9
X67.564Y-56.642
X68.97Y-149.96
X70.28Y-85.86
X76.67Y-79.57
X77.43Y-121.89
X77.44Y-117.98
X79.756Y-122.174
X81.19Y-52.08
X82.042Y-125.1
X82.68Y-58.06
X83.312Y-108.712
X83.34Y-85.42
X84.55Y-74.7
X85.29Y-65.16
X86.5Y-62.35
T2
X51.623Y-88.55
X53.623Y-88.55
X57.35Y-87.777
X57.35Y-89.777
T3
X57.74Y-105.3
X57.74Y-112.92
X58.531Y-93.669
X61.1Y-110.65
X61.19Y-113.19
X62.35Y-51.69
X62.35Y-59.31
X62.75Y-78.215
X62.75Y-85.835
X63.919Y-88.281
X65.16Y-51.69
X65.16Y-59.31
X67.72Y-93.51
X67.84Y-107.475
X68.72Y-110.65
X68.81Y-113.19
X70.39Y-156.95
X70.525Y-146.24
X70.525Y-153.86
X70.612Y-135.89
X70.612Y-143.51
X73.79Y-110.4
X73.815Y-113.175
X74.29Y-78.25
X75.34Y-93.51
X75.46Y-107.475
X78.01Y-156.95
X79.01Y-55.185
X79.01Y-62.805
X79.25Y-99.85
X79.25Y-107.47
X80.12Y-135.88
X81.41Y-110.4
X81.435Y-113.175
X81.91Y-78.25
X87.675Y-64.64
X87.675Y-72.26
X87.74Y-135.88
X88.175Y-81.99
X88.175Y-89.61
T4
X52.52Y-136.35
X54.52Y-136.35
X60.98Y-103.12
X60.98Y-108.12
X62.145Y-136.25
X62.875Y-69.9
X62.875Y-74.9
X63.25Y-62.3
X63.25Y-67.3
X64.145Y-136.25
X64.3Y-93.975
X64.3Y-98.975
X64.3Y-101.4
X64.3Y-106.4
X66.89Y-78.44
X67.63Y-96.4
X67.63Y-98.94
X67.63Y-101.48
X67.63Y-104.02
X67.855Y-82.175
X67.855Y-84.715
X67.855Y-87.255
X67.855Y-89.795
X68.14Y-59.645
X68.14Y-62.185
X68.14Y-64.725
X68.14Y-67.265
X68.14Y-69.805
X68.14Y-72.345
X68.14Y-74.885
X71.06Y-52.295
X71.06Y-55.995
X71.89Y-78.44
X72.644Y-60.02
X72.644Y-65.02
X73.825Y-150.175
X74.686Y-138.948
X74.686Y-146.568
X75.25Y-96.4
X75.25Y-98.94
X75.25Y-101.48
X75.25Y-104.02
X75.475Y-82.175
X75.475Y-84.715
X75.475Y-87.255
X75.475Y-89.795
X75.76Y-59.645
X75.76Y-62.185
X75.76Y-64.725
X75.76Y-67.265
X75.76Y-69.805
X75.76Y-72.345
X75.76Y-74.885
X76.06Y-52.295
X76.06Y-55.995
X77.226Y-138.948
X77.226Y-146.568
X78.825Y-150.175
X79.035Y-67.22
X79.035Y-72.22
X79.28Y-85.44
X79.28Y-90.44
X79.766Y-138.948
X79.766Y-146.568
X81.46Y-75.245
X81.525Y-150.175
X82.306Y-138.948
X82.306Y-146.568
X82.41Y-64.62
X82.41Y-69.62
X85.852Y-141.772
X85.852Y-146.772
X86.46Y-75.245
X86.525Y-150.175
T5
X52.25Y-94.05
X54.398Y-56.17
X54.398Y-58.71
X54.398Y-61.25
X54.398Y-63.79
X54.398Y-66.33
X54.79Y-94.05
X56.938Y-56.17
X56.938Y-58.71
X56.938Y-61.25
X56.938Y-63.79
X56.938Y-66.33
X81.525Y-154.36
X81.525Y-156.9
X84.065Y-154.36
X84.065Y-156.9
X84.875Y-54.55
X84.875Y-57.09
X84.875Y-59.63
X85.11Y-92.9
X86.605Y-154.36
X86.605Y-156.9
X87.415Y-54.55
X87.415Y-57.09
X87.415Y-59.63
X87.65Y-92.9
T6
X52.575Y-73.92
X52.575Y-84.08
X57.85Y-73.92
X57.85Y-84.08
T7
X53.35Y-124.35
X53.35Y-149.5
X57.25Y-130.25
X57.25Y-155.4
X60.25Y-117.45
X60.25Y-142.6
X64.49Y-128.59
X64.49Y-153.74
X66.15Y-121.35
X66.15Y-146.5
X74.15Y-124.35
X78.05Y-130.25
X81.05Y-117.45
X85.29Y-128.59
X86.95Y-121.35
T0
M30
